<?xml version="1.0" encoding="utf-8"?>
<!-- Generator: Adobe Illustrator 24.1.0, SVG Export Plug-In . SVG Version: 6.00 Build 0)  -->
<svg version="1.1" id="Layer_1" xmlns="http://www.w3.org/2000/svg" xmlns:xlink="http://www.w3.org/1999/xlink" x="0px" y="0px"
	 viewBox="0 0 264.7 243.9" style="enable-background:new 0 0 264.7 243.9;" xml:space="preserve">
<style type="text/css">
	.st0{filter:url(#Adobe_OpacityMaskFilter);}
	.st1{fill:#FFFFFF;}
	.st2{mask:url(#SVGID_1_);}
	.st3{fill:#CB9831;}
</style>
<defs>
	<filter id="Adobe_OpacityMaskFilter" filterUnits="userSpaceOnUse" x="1.5" y="1" width="263.7" height="242.9">
		<feColorMatrix  type="matrix" values="1 0 0 0 0  0 1 0 0 0  0 0 1 0 0  0 0 0 1 0"/>
	</filter>
</defs>
<mask maskUnits="userSpaceOnUse" x="1.5" y="1" width="263.7" height="242.9" id="SVGID_1_">
	<g class="st0">
		<g>
			<g>
				
					<rect x="-17.3" y="-0.6" transform="matrix(1 -9.696891e-03 9.696891e-03 1 -1.1842 1.3508)" class="st1" width="312" height="246.7"/>
				<path d="M154.4,231.5c-0.4-0.7-0.7-1.3-1-2c-0.5,0.4-0.7,0.7-1,1c-0.2-0.1-0.4-0.2-0.5-0.3c-0.2-0.2-0.2-0.6-0.4-0.8
					c-1.2-1-1.3-0.4-1.8,0.4c-0.1,0.1-0.1,0.3-0.1,0.7c-4.2,1.4-3.9,0.9-4.2,3.7c-1.4,0.3-3-0.8-3.8,1c-0.5-0.5-0.4,0,0-2.8
					c0.6,0.4,1,0.6,1.5,0.8c0.7-1.1,0.8-0.7-0.7-1.3c0-0.9,0.1-1.8,0.2-2.8c1.9,0.1,3.3,1.8,5.5,0.9c-0.2-0.4-0.4-0.8-0.6-1.2
					c3.7-2,3.7-2,5.1-1.8c-0.2,0.6-0.1,0.4-0.6,1.1c0.9,0,1.6,0,2.5,0c0.3,0.4,0.6,0.9,0.9,1.6c0.5-0.1,1.1,0,1.6-0.2
					c1.9-0.9,1.4-0.6,3.5,0.5c1.9-2.2,1.2-1.9,2.8-1.5c-1.5,3.9-4.4,0.9-6,2.8C156.5,231.8,155.5,231.9,154.4,231.5z"/>
				<path d="M66.6,224.2c2.6-0.9,4.4-2,5.9-0.5c1.4,1.4,1.2,2.4-0.6,3.5c-0.8-0.1-1.6-0.3-2.7-0.5c0.5,2.6,0.5,2.2,0,2.7
					c-1.5,1.4-1.5,1.4,0.2,2.9c1.3-1,1.4-2.5,1.9-2.4c4.1,1.4,3.5,1.3,3.5,1.7c-0.6,1-3.1,0.2-2.3,2.5c-10-2.6-5.8-0.4-4.9-9.2
					C66.3,224.2,66.4,224.3,66.6,224.2z"/>
				<path d="M113.6,236.7c0,0.6,0.1,1.2,0.1,1.9c3.5,0.4,4.3,0.3,2.3,1.1c0.8,0.7,1.5,1.3,2.4,2.1c-0.4,0.3-0.7,0.4-0.9,0.5
					c0.9,4.3,0.9,3.3-0.1,3.9c0.1,0,0,0.1-0.8-2.5c-0.9,0.2-1.1,1.3-2,0.7c-0.7-0.5-0.8-1.2-0.4-1.9c0.4-0.1,0.9-0.1,1.7-0.2
					c-0.6-0.5-1.1-0.9-1.5-1.3c-2.3,1-2.6,2.9-3.4,4.8c-0.5-0.4-0.8-0.8-1.2-1.2c0.4-0.4,0.8-0.8,1-0.9c0-3-0.3-1.7,1-5.1
					c-0.7-0.5-1.7,0-1.7-1.1c0.3-0.1,0.6-0.3,0.9-0.2c0.7,0.2,1.2,0.1,1.6-0.5C112.9,236.1,113.9,237,113.6,236.7z"/>
				<path d="M139.3,243.5c0.1-1.5,0.9-1-3.6-3.2c-0.5,0.7-0.7,2-2.5,1.9c0.3-0.8,0.5-1.5,0.9-2.5c0.6-0.1,1.5-0.3,2.4-0.6
					c0.2-2-0.4-1.5,2.5-0.4c0-0.7-0.1-1.1-0.1-1.5c1.3-0.7,3,1.9,2.5,2.4c-0.4,0.4-1.4,0.4-1.3,1.2c0.1,0.9,1,0.8,1.7,1
					c0.5,0.1,1,0.3,1.5,0.5C143.4,242.7,144,242.2,139.3,243.5z"/>
				<path d="M22,172.4c0.6-0.3,1-0.6,1.8-1.1c-1.6-0.2-2.6-0.6-2.6-2c0.7-0.2,1.5-0.5,2.5-0.9c0.2,1.2,0.2,1.8,0.5,1.8
					c0.8,0.1,1.3,0.4,1.7,1c0.3,0.4,1.7,0.5,1.8,0.8c0.5,1.4,0.9,1.3,1.2,1.7c-0.3,2.2-2.5,0.3-3.4,1.7
					C25.6,175.4,25.8,175.7,22,172.4z M26.5,172.6c-0.7-0.3-0.5-0.2-0.9,0.2C26.3,173,26.1,173.1,26.5,172.6z"/>
				<path d="M10.7,119.4c0.6,0.7,1.1,1.4,1.6,2c0.6-0.1,1.1-0.2,1.8-0.3c-0.3,0.7-0.4,1.1-0.6,1.6c0.7,0.7,1.5,1.4,2.3,2.2
					c-0.6,0.5-1.1,0.9-1.9,0.3c-3.3-2.3-2.8-1.8-5.9-2c0.4-0.5,0.7-0.9,1-1.5C6.2,121,6,121.3,10.7,119.4z"/>
				<path d="M60.1,186.5c0.3-0.2,0.9-0.5,1.7-0.9c-0.1,0.7-0.2,1.2-0.2,1.7c0.9,0.1,2.1,0.2,1.9,1.3c-0.2,1-1.3,1.1-2.1,1.1
					c1,1.3,1,0.7,0.2,2.6c-0.9,0.1-1.8,0.1-2.8,0.2c0.2-1-0.1-2,1-2.9C60.4,189,60,187.7,60.1,186.5z"/>
				<path d="M66.5,224.3c-0.5,0.1-1.3,0.5-1.4-0.4c-0.1-0.6-0.5-0.8-1.1-0.7c-0.6,0.1-1.2,0.3-1,1c0,0.2-0.2,0.4-0.4,0.7
					c-2.1-1.5-0.9-1-2.2,0.1c-0.3,0.3-0.8,0.4-1.3,0.7c-1-2.1,2.7-2.2,3.2-3.9c0.1-0.2,1.1-0.4,1.6-0.4c0.5,0,0.9,0.1,1.4,0.1
					c1.7,0,1.8,0.1,1.5,1.6C66.5,224.3,66.6,224.1,66.5,224.3z"/>
				<path d="M35.2,174c-1.6-0.2-1.6-0.2-1.6-2c-0.5,0.1-0.9,0.3-1.3,0.4c0.8,1.6,0.8,1.3,0.4,1.6c-3.2-1.6-2.3-1-3.1-2.5
					c0.5-0.6,1-1.1,1.4-1.6C34.5,170.5,34.5,170.5,35.2,174z"/>
				<path d="M31.2,179c1.3-1,1.3-1,2.5-0.9c0.4-0.6,0.8-1.2,1.4-2c0.6,2.2-0.9,3.7-1.5,5.3c-0.3,0.9-1.5,0.5-2.5,0.4
					c0.7-0.7,1.4-1.3,2.1-2c-1.3-0.8-2.1-0.2-2.7,0.4c-0.9-0.3-1.8-0.7-2.6-1C28.6,178,28.6,178,31.2,179z"/>
				<path d="M73,143.3c0,1.9-0.1,1.7,0.4,1.3c0.6,0.7,1.3,1.5,2,2.2c-1.8,0.6,0.4,0.9,0.2,1.4c-1.4,0.8-3,0.2-3.4-1.5
					c-1.5-0.3-0.9-0.2-2.4-0.5C71,145.3,71,143.8,73,143.3z"/>
				<path d="M158.7,226.9c-1.2,0.1-2.2,0.3-3.2-0.7c-1.3-1.2-3-2.2-4.8-3.5c0.9-0.3,1.8-0.6,2.5-0.8
					C155.6,223.3,156.3,225.7,158.7,226.9z"/>
				<path d="M28.2,187.4c0.3,0.2,0.5,0.5,0.8,0.8c-1.3,0.6-3.2,0.2-3.4,1.9c-0.9,0-1.6,0-2.3-0.1c-0.3-0.5-0.9-1.4-0.8-1.4
					c1.1-0.7,0.3-2.4,2.2-2.7c0,0.5-0.1,1-0.1,1.7C24.6,187.5,28.7,187.7,28.2,187.4z"/>
				<path d="M89.9,163.6c-1.6-0.1-1.6-0.1-3.8,1.4c-1.2-0.7-0.3-1.5-0.3-2.4c0.6-0.1,1.1-0.2,1.8-0.3c-0.5-0.6,0.2-0.5-2.6-0.7
					c0.4-1.7,0.5-1.8,1.9-1.1C87.5,160.9,89.6,160.8,89.9,163.6z"/>
				<path d="M54.3,231.8c-0.4-1.9-0.8-3.8-1.2-5.7c1.5-0.5,1.1,0.7,1.7,1.1c0.9,0.3,1.9-0.4,2.2,0.5c0.1,0.4-0.3,1-0.6,1.5
					c-0.4,0.8-1.4,1.3-1.5,2.3C55,231.7,54.5,231.8,54.3,231.8z"/>
				<path d="M79.8,223.6c-1.2-1-0.7-1.7-0.3-2.5c-0.4-0.4-0.8-0.8-1.1-1.2c0.4-0.9,1-1.6-0.1-2.5c-0.3-0.2,0.2-1.2,0.4-2.2
					c1.7,1.8,1.2,3.6,1.8,5.3C84.9,222.6,80.1,220,79.8,223.6z"/>
				<path d="M82.1,157.1c3.2-1.3,3.5-1.3,2.4-2.7c-0.2-0.2,0-0.6,0-1c1.6,0.9,4,1.1,3.1,3.6c-1.7,0.1-3.5,0.6-5.3,0.7
					C82.2,157.4,82.2,157.2,82.1,157.1z"/>
				<path d="M106.2,246.5c0.2-0.1,0.5-0.2,0.7-0.4c0.1,0.1,0.1,0.3,0.2,0.4l3.7,0c-0.1-0.1-0.2-0.1-0.2-0.2c-3.2-0.8-6.5-2-6.6,0
					c0.2,0.1,0.4,0.2,0.5,0.2L106.2,246.5z"/>
				<path d="M-12.5,142.4c4.7,2.5-0.3-0.9,1.6-1.6c1.1-0.4,2.5,0.8,2.9,1.1c-1.3,0.4-1.3,0.4-1.2,2c0.1,1.3-1.6,2-2.9,0.4
					C-12.4,144-12.3,143.4-12.5,142.4z"/>
				<path d="M123.1,193.7c1.6,0.2,0.7,1.8,2,2.4c-1.2,0.7-2.5,1.3-1.9,2.9c-1.6-0.1-1.2,0-2.3-3.2
					C122.5,194.5,121.9,195,123.1,193.7z"/>
				<path d="M148.8,215.6c-1.3,0.2-0.1,0.8-4.7-2.4c0.6-0.7,1.2-1.4,1.6-1.9c-0.5-0.7-0.9-1.3-1.4-2c1.6-0.1,1.6-0.1,3,2
					c-1,0.7-0.7,0.4-1.2,0.9c-0.5,1.3,1.5,0.6,1.4,1.6C147.5,214.3,148.3,214.9,148.8,215.6z"/>
				<path d="M78.8,174.4c0.6,0.5,0.9,0.9,1.6,1.5c0.4-0.6,0.7-1.1,1-1.6c0.8,0.3,0.6-0.1,0.5,2.9c-1.5-0.6-2.2,1.6-3.8,0.4
					C77.6,176.5,77.9,175.5,78.8,174.4z"/>
				<path d="M27,186.5c0.1-0.4,0.3-0.9,0.6-1.8c0.8-0.6,2.8-0.7,2.7-2.6c1.2,0.2,1.2,1,1.4,1.5c-0.4,0.5-0.6,1-1,1.3
					c-0.4,0.4-1.1,0.7-1.4,1.1c-0.3,0.4,0,1.2-1.1,1.2C28.2,187.4,28.5,187.6,27,186.5z"/>
				<path d="M134.3,199.2c0.5,0.1,1,0.1,1.5,0.2c0.4,1.5-1.3,1.3-1.8,2.1c-1-0.8-1.8-1.4-2.7-2.2c2.1-1.6,1.2-1.5,4.3-0.9
					C135.6,199.3,134.7,198.9,134.3,199.2z"/>
				<path d="M99,212.7c-0.7-0.2-1.4-0.6-2.4-0.9c0.4-0.5,0.9-1.2,1.4-1.9c1.3,0.9,2.2,1.7,3.8,1.4C101.6,211,103,213.7,99,212.7z"/>
				<path d="M77.2,134.3c0.3,1.2-0.9,2.2,1,2.9c-0.9,0.2-1.3,0.4-1.5,0.3c-1.4-0.4-2.7-0.8-4.1-1.4c1.1-0.1,2-0.5,2.8-1.2
					C75.8,134.7,76.5,134.6,77.2,134.3z"/>
				<path d="M132.5,164.1c-1.7,0.9-2,0.8-2.3-1c-0.2-0.9-1.1-2.3,0-2.6c0.3-0.1,1,0.1,1.1,0.3C131.7,161.8,133.2,162.6,132.5,164.1z
					"/>
				<path d="M129.9,234.9c2.5-0.3,3.1,1.2,4,2.6c-0.5,0-0.9-0.1-1.6-0.1c0.2,0.8,0.3,1.5,0.4,2.2
					C131.4,239.2,131.8,239.5,129.9,234.9z"/>
				<path d="M98.4,207.7c-0.9,1.5-0.4,1-2.4,1.5c0.8-1.7,1.5-3.1,2.1-4.5c0.7,0.8,1.9,1.1,1.5,2.3
					C100.3,207.5,100.6,207.4,98.4,207.7z"/>
				<path d="M125,149.1c1.1,0.1,2,0.2,3,0.4c-0.8,1.2-1.5,2.2-2.2,3.3c-0.6-0.1-1.2-0.3-2-0.4C125.7,149.9,125.5,150.7,125,149.1z"
					/>
				<path d="M-1.2,245.8c1.6-2.9,0.6-1.9,3.1-1.7c0.6,0,1.2-0.1,2-0.1c-0.9,1.4-1.2,2.3-2.5,1.8C0.7,245.5-0.1,245.7-1.2,245.8z"/>
				<path d="M27.1,206.6c-0.1-0.8-0.2-1.4-0.3-2c1.7-2.2,4.4,0.4,2.8,1.1C28.9,206.1,28.1,206.3,27.1,206.6z"/>
				<path d="M77.9,150.5c-0.1-0.5-0.2-1-0.4-1.6c0.5,0,1-0.1,1.6-0.1c-0.3,0.7-1,1.3,0.3,1.8c0.8,0.3,1.4,0.9,2.1,1.4
					c-1.2,0.4-2.4,0.7-3.5-0.5c-0.3-0.3-0.9-0.3-1.4-0.4C76.6,150.6,76.3,150.7,77.9,150.5z"/>
				<path d="M-13.2,111.1c-1.9,2-1.2-0.1-4.2,1.3l0,0.1c0.9,0.8-0.4,0.8,6.7,0C-11.7,112-12.4,111.6-13.2,111.1z"/>
				<path d="M39.6,193.7c-1-1.9-0.7-3.3,0.9-4.6c0.2,0.3,0.7,0.8,0.7,0.8c-1.4,1-0.4,2,0,3.1C40.8,193.2,40.3,193.4,39.6,193.7z"/>
				<path d="M-3.4,99c1.3,3.2,0.4,2.4,3.8,3.6c0,0.2,0,0.3-0.1,0.5c-1.6,0.3-0.5,0.5-4.1-0.5C-2.9,101.6-4.2,100.5-3.4,99z"/>
				<path d="M-2.3,136.3c-0.8,0.9-1.5,1.6-2.2,2.4c0.3-1.8-1.7-2.4-2.5-3.5C-6.5,135-7.2,134.9-2.3,136.3z"/>
				<path d="M77.7,211.5c-0.6,0.7-1.2,0.6-2,0.4c-1-0.3-1.6,0-1.5,1c0.1,0.7-0.1,0.9-1,0.8c0-0.8-0.2,0,0.7-2.9
					C75.3,210.7,76.6,210.6,77.7,211.5z"/>
				<path d="M166.7,195c0.3-0.3,0.5-0.5,0.8-0.7c-0.2-0.1-0.6-0.2-0.6-0.3c-0.5-1.2,0.7-1.2,0.8-1.1c1,0.6,2,1.3,3.3,2.2
					C169.3,195,168.1,195,166.7,195z"/>
				<path d="M75.5,225.6c0.2-1.7,2.2-0.8,3-1.6c0.5,0.7,1,1.3,1.5,2.1c-0.1,0.1-0.6,0.4-0.6,0.4c-1-0.8-2.2-0.5-3.4-0.6
					C75.9,225.9,75.8,225.8,75.5,225.6z"/>
				<path d="M76.6,240.5c1.6-0.7,1.6-0.7,1.1-2.3c0.8,0.3,1.3,0.5,1.8,0.7c0.1,1.5-0.2,2.1-1.3,2.5
					C77.6,241.5,77.5,241.5,76.6,240.5z"/>
				<path d="M70.1,181.1c1.3-0.5,2.4-0.9,3.7-1.4c0.1,0.9,0.4,1.7-0.6,2.3C72.2,182.5,71.5,182.3,70.1,181.1z"/>
				<path d="M36.2,215c-0.4-1.2-0.7-2.1-1.1-3.2c0.3-0.4,0.8-0.7,1.6-0.1C37.8,212.6,37.8,213.3,36.2,215z"/>
				<path d="M162.6,243.9c-0.2,0.4-0.4,0.8-0.6,1.2c-2-0.1-2.2-1.8-3.9-2.6C160.2,242.3,161.2,243.3,162.6,243.9z"/>
				<path d="M99.4,204.4c-0.4-0.6-0.8-1.2-1.2-1.9c0.8-0.5,1.6-1,2.5-1.6c0.7,1.2,0.7,1.2-0.8,1.9
					C99.9,203.4,100.8,204.1,99.4,204.4z"/>
				<path d="M41.5,186.8c0.6-0.6,1.2-1.2,2-2c0.4,0.9,0.8,1.6,0.9,2.4c0.1,0.4-0.9,0.8-1.4,0.5C42.5,187.4,42.1,187.1,41.5,186.8z"
					/>
				<path d="M53.8,177.7c2.3-0.9,3.5,0.3,3.2,1.3c-0.1,0.3-0.6,0.6-0.8,0.6C55.6,179.5,54.9,178.7,53.8,177.7z"/>
				<path d="M95.2,174.4c1.6-0.8,2.9-1.4,4.3-2.1c0,0.6,0.2,1.1,0,1.5C98.7,175.2,97.5,174.7,95.2,174.4z"/>
				<path d="M82.3,147.8c1.8,0.3,1.8,0.3,2.1,2.4c-1-0.1-1.9-0.2-3-0.4C81.8,149.1,82,148.5,82.3,147.8z"/>
				<path d="M101.9,211.2c1.1-1.3-0.1-2.1-1.1-3.2c1.7,0.1,3,0.3,3.8,1.7C101.5,211.4,101.8,211.2,101.9,211.2z"/>
				<path d="M75.5,220.6c0.2-0.8,0.4-1.4,0.5-2.2c1.9,0.5,1.3,2,2.2,2.9C76.9,221.7,76.4,220.7,75.5,220.6z"/>
				<path d="M133.3,231c-0.2,0.1-0.5,0.5-0.9,0.5c-0.7,0.1-2-0.7-2-1.2C130.3,228.9,133.2,229.3,133.3,231z"/>
				<path d="M25,225.5c-0.3,0.3-0.7,0.7-1,0.9c-1.3-0.3-2.6-0.6-4-1C20.5,224.1,24.1,225.3,25,225.5z"/>
				<path d="M91.1,202c-0.4,0.5-0.8,0.9-1.4,1.5c-0.8-1.5-0.3-1.2-2.5-1.1c0.3-0.5,0.4-1,0.7-1.1C89,200.9,90.1,201.2,91.1,202z"/>
				<path d="M77.1,214.7c0.3-1,0.5-1.7,0.8-2.6c1,0.7,1.7,1.1,2.9,1.8C79.4,214.2,78.5,214.4,77.1,214.7z"/>
				<path d="M150.1,232.4c-0.6,1.2-1,2.1-1.5,3.1C145.9,235.7,147.2,233,150.1,232.4z"/>
				<path d="M52.4,110.7c0.7-0.1,0.7-1.7,2.1-0.7c-0.5,1-1.2,1.8-2.7,1.7c-0.9-0.1-1.6-0.1-1.8-1C50.8,110,51.5,110.9,52.4,110.7z"
					/>
				<path d="M-8.8,117.4c3.1-1.5,3.5-2,4.4-0.9C-6,117.2-9.2,118.9-8.8,117.4z"/>
				<path d="M89.7,138.4c-0.4,0-0.9-0.1-1.5-0.2c-0.2,0-0.4-0.4-0.3-0.5c1.5-2.6,1.4-2,2.4-2.2C90.1,136.4,90,137.3,89.7,138.4z"/>
				<path d="M107.8,205.8c1-0.1,2-0.1,2.7-0.9c0.5-0.6,1-0.4,1.9,0.3C109.1,207,108.6,207,107.8,205.8z"/>
				<path d="M122,204.6c-3.5,0.4-4.6-1.4-4.1-2C118.3,202,118.6,202.4,122,204.6z"/>
				<path d="M14.5,172.2c2.1,0.2,2.2,0.5,0.9,2.7C13.9,174.3,14.5,173.2,14.5,172.2z"/>
				<path d="M23.5,180.5c0.7-1.6,1.1-1.6,3.6,0C27,181.7,26.5,181.3,23.5,180.5z"/>
				<path d="M238.8,239.6c-1.8,0.1-2.4-0.6-2.7-2C238.3,237,237.6,236.7,238.8,239.6z"/>
				<path d="M53.5,195.9c-1.4,0.2-2.7,0.4-3.9,0.7c-0.1-0.1-0.3-0.2-0.3-0.3c0.3-1.3,1.9-0.8,2.7-1.4
					C52.4,194.5,52.7,194.7,53.5,195.9z"/>
				<path d="M77.2,181.7c0-3-0.4-2.3,1.5-3.3c0.9,0.7-0.7,1.2,0,1.9C78.9,180.6,78.4,181.6,77.2,181.7z"/>
				<path d="M111.9,214c1.4,0.1,2.7,0.2,4,0.4c0,1.1-1.1,1.2-1.4,1.1C113.6,215.1,112.3,215.1,111.9,214z"/>
				<path d="M99.9,33c-0.8,1.3-1.4,1.6-3.3,1.1C97.2,32.9,97.9,32.6,99.9,33z"/>
				<path d="M2.2,119.5c0,0.8,0,1.4,0,2.3C-0.3,123.3,0.3,119.5,2.2,119.5z"/>
				<path d="M-13.1,226.3c-0.2-1.3,0.1-1.9,1.5-1.9c0.4,0.7,0.9,1.5,1.3,2.2C-11.6,227.4-11.9,225.2-13.1,226.3z"/>
				<path d="M44.6,96c2.5,0.5,2.6,0.5,4.1,1.8c-0.2,0.4,0.2,0.2-1.1,0.8c-0.5-1.1-0.3-0.7-0.8-1.5C44.9,97,45.5,97.2,44.6,96z"/>
				<path d="M8.6,116.5c-1-0.1-2-0.2-2-1.2c0-0.6,0.8-0.9,2.2-0.7C8.8,115.2,8.7,115.8,8.6,116.5z"/>
				<path d="M95.8,192.2c-1,0.1-1.7,0.2-2.8,0.3c0.1-0.6,0.2-1.2,0.2-1.8C95.5,191.1,95.5,191.1,95.8,192.2z"/>
				<path d="M124.4,147.9c1.3-1.6,1.2-0.9,0.5-3.1c2.4,0,1.6,2.5-0.1,3.4C124.6,148.1,124.5,148,124.4,147.9z"/>
				<path d="M81.2,135.1c-1.2-0.3-1.7-1.2-1.4-2.2c0.2-0.5,0.2-0.5,1.4-0.4C81.2,133.3,81.2,134.2,81.2,135.1z"/>
				<path d="M6.4,244.2c0.3,0.4,0.5,0.8,0.9,1.4c-0.7,0.3-1.4,0.6-2.2,0.9C4.7,245,4.7,245,6.4,244.2z"/>
				<path d="M166.8,200.6c0.9-0.6,0.9-0.6,2.5-0.5c-0.5,0.9-0.5,0.9,0.2,1.9C167.7,202.6,167.7,201.1,166.8,200.6z"/>
				<path d="M9.8,118c1.7-0.8,2.9-1.7,3.4-0.1C10.3,119.4,10,117.7,9.8,118z"/>
				<path d="M80.4,156.6c-0.1-1-0.2-1.9-0.2-2.7c2-0.5,1.1,1.4,2.2,1.8C81.7,156,81.1,156.3,80.4,156.6z"/>
				<path d="M228.4,236.9c0.7,0.2,1.7-0.3,2,0.7c0.3,1-1.2,0.7-1.6,1.4C228,236.9,228,237.2,228.4,236.9z"/>
				<path d="M-5.3,107.8c0.7,0.3,1.2,0.6,1.7,0.8c-0.8,1.3-0.8,1.3-2.5,0.9C-5.8,109-5.6,108.6-5.3,107.8z"/>
				<path d="M281.8,209c-0.8,0.8,0.3,2.1-1.3,2.5c-0.4-0.5-1.4-1.1,0.1-2.4C280.8,208.9,281.4,209,281.8,209z"/>
				<path d="M-5.1,129.9c1,0.9,1.5,1.6,1,2.6c-0.6-0.1-1.1-0.2-1.9-0.4C-5.7,131.4-5.5,130.8-5.1,129.9z"/>
				<path d="M20.8,177.8c1.1-0.4,1.9-1,2.9-0.2C22.5,178.9,22.2,178.9,20.8,177.8z"/>
				<path d="M99.1,237c-2-0.1-1.3-0.8-0.2-3.3C100.1,234.8,99.2,235.9,99.1,237z"/>
				<path d="M28,177.4c0,0-0.7,0.2-1.1,0.2c-0.4-0.4,1-1.1-1.3-2.1c-0.1,0-0.3,0,3.7-0.1C29.8,175.9,27.8,176.2,28,177.4z"/>
				<path d="M127.7,244.7c-1.2,0.9-1.5,1.6-2.9,0.8c-0.1-0.1-0.7-1.2,1.2-1.1C126.8,244.4,127.9,244.8,127.7,244.7z"/>
				<path d="M120,143.8c1.8-1.1,1.3-0.9,2.3-0.6c0.1,0-0.9,1.8-1,1.8C120,144.6,120.3,144.5,120,143.8z"/>
				<path d="M182.9,138.2c1.2-0.7,0.3-0.8,3.4-0.1c-0.1,0.2-0.2,0.5-0.4,0.6C184.9,138.8,183.9,139,182.9,138.2z"/>
				<path d="M156.5,237.6c0.2-0.9,0.3-1.4,0.5-2C160.9,236.4,160.7,236.1,156.5,237.6z"/>
				<path d="M258.5,194.3c-0.3-0.9-0.5-1.5-0.7-2.1c0.7-0.3,1.4-0.3,2.2,0.3C259.6,193.1,259.2,193.6,258.5,194.3z"/>
				<path d="M22.8,181.8c0.6-0.2,1.1-0.3,1.8-0.5c0.2,0.7,0.4,1.2,0.7,2C21.9,182.2,22.3,182.5,22.8,181.8z"/>
				<path d="M129.5,198.8c-0.4-0.6-0.9-1.1-1.3-1.8c0.9-0.1,1.6-0.2,2.5-0.4C129.9,198.9,130.2,198.6,129.5,198.8z"/>
				<path d="M255.3,203.2c1.2-0.6,2.5-1.1,3.6-1.6C259.1,203.1,258,203.6,255.3,203.2z"/>
				<path d="M107.4,242c1.3,0.2,1.1,1,1.3,1.5c-0.8,0.8-1.6,1.1-2.9,0.3C107.7,243.1,107.4,243.5,107.4,242z"/>
				<path d="M152,160.4c1.3-1,1.9-2,3.1,0.4C154.2,160.7,153.4,160.6,152,160.4z"/>
				<path d="M7.1,32.9c-0.5-0.7-1-1-0.9-1.4c0.1-1.1,1.9-1.5,1.7,0.1C7.8,32,7.5,32.3,7.1,32.9z"/>
				<path d="M228.3,240.9c-0.1,0.3-0.2,0.7-0.5,0.9c-0.9,0.7-1.7,0.8-2.5,0.5C228,240.3,227.5,240.5,228.3,240.9z"/>
				<path d="M101.1,203.6c0.9,1,0.6,0.7,1.2,1.1c-0.3,0.5-0.6,1-1,1.5C99.8,205.4,101.2,204.7,101.1,203.6z"/>
				<path d="M20.7,189.1c-1-2.1-1.1-1.6,0.2-2.5C22,187.5,22,188.2,20.7,189.1z"/>
				<path d="M15.9,4c-0.5,0.5-0.9,1-1.5,1.6c-0.5-0.4-1.1-0.8-0.5-1.3C14.4,3.8,15,3.2,15.9,4z"/>
				<path d="M233.7,232.3c-0.7,0.3-1.3,0.7-1.5,0.6c-0.9-0.5-0.5-1.2,0.1-1.9C232.6,231.3,233,231.6,233.7,232.3z"/>
				<path d="M10.6,7.8c1.2,0.1,2,0.2,2.9,0.3C14.2,9.7,11.1,9.5,10.6,7.8z"/>
				<path d="M76.7,118c-2.1,0.2-2.1,0.2-1.9-1.5C76.3,116.1,75.6,117.5,76.7,118z"/>
				<path d="M53.1,218.2c1.2,0.4,2,0.7,2.9,1c-0.4,0.4-0.8,0.8-1.3,1.4C54.2,219.9,53.8,219.2,53.1,218.2z"/>
				<path d="M239.6,7.6c0.5,0.6,0.8,1,1.2,1.6c-1,0.2-1.6,0.3-2.5,0.4C238.7,8.9,239,8.4,239.6,7.6z"/>
				<path d="M49.3,89.8c-0.3,1.5-0.3,1.5-1.8,1.7C47.4,90.5,48.1,90.1,49.3,89.8z"/>
				<path d="M24.1,114.4c-1.2,0.7-0.4,2-2,2.1C22,114.9,22,114.8,24.1,114.4z"/>
				<path d="M19.6,186c-0.9-0.3-1.4-0.5-1.9-0.7c0.5-1,0.1-0.8,1.5-1.1C19.3,184.7,19.4,185.2,19.6,186z"/>
				<path d="M4.5,237c0-0.7,0-1.3,0-1.9c1,0,1.4,0.5,1.4,1.2C6,236.6,5.9,236.6,4.5,237z"/>
				<path d="M26.8,168.8c-0.2-0.9-0.3-1.4-0.5-2c1.5,0.5,1,0.2,2,1.4C28,168.3,27.5,168.5,26.8,168.8z"/>
				<path d="M6.8,108.5c-0.8,1-0.8,1-2.6,0.5C4.7,107.6,5.9,108.6,6.8,108.5L6.8,108.5z"/>
				<path d="M-16.2,168.6c0.7-0.5,1.1-0.8,1.7-1.2c0.2,0.8,0.3,1.4,0.5,2.3C-14.9,169.3-15.3,169-16.2,168.6z"/>
				<path d="M101.7,225.1c0.9-0.3,1.4-0.6,1.8-0.6c1.1,0,1.3,1.3-0.3,1.3C102.9,225.8,102.6,225.5,101.7,225.1z"/>
				<path d="M281.9,205.3c-0.5,0.1-0.9,0.2-1.3,0.2c-0.9-0.7-0.5-1.4-0.2-2.5C281,203.9,281.4,204.5,281.9,205.3z"/>
				<path d="M8.2,119.1c0.1-1.3,0.7-2,1.7-2.6C9.7,118.4,10.2,117.7,8.2,119.1z"/>
				<path d="M26.9,177.6c-0.1,0.6-0.2,1.3-1.5,1.3c0.1-0.7,0.2-1.3,0.4-2.1C27,177.6,26.7,177.4,26.9,177.6z"/>
				<path d="M69.2,204.5c-2.1-0.2-2.1-0.2-1.9-1.6C68.5,202.8,68.9,203.5,69.2,204.5z"/>
				<path d="M137,200.1c1.4-0.6,1.6-0.4,1.9,1.4C137.5,201.8,137.7,200.6,137,200.1z"/>
				<path d="M4,105.5c-0.4,0.4-0.8,0.8-1.2,1.3C1.9,105.6,1.9,105.6,4,105.5z"/>
				<path d="M201.4,224.7c-1.1,1.2-0.5,1.1-2.9,0.3c0-0.3-0.4-0.2,2.7-0.6C201.3,224.5,201.4,224.6,201.4,224.7z"/>
				<path d="M252.9,206.1c2.1-1.4,1.4-1.1,2.5-0.9C255.1,206.3,255.7,206.1,252.9,206.1z"/>
				<path d="M262.6,210.4c0,1.1,0,1.1-1.2,2.4C261,211.7,261.6,211.1,262.6,210.4z"/>
				<path d="M10,160.5c1-2.1,0.8-2.2,1.7,0.4C11.1,160.7,10.6,160.6,10,160.5z"/>
				<path d="M222.2,218.2c-0.2,0.8-0.5,1.4-1.4,1.1c-0.3-0.1-0.6-0.5-0.6-0.6C220.6,217.8,221.4,218.1,222.2,218.2z"/>
				<path d="M-2.9,211.3c-1.4-0.3-1.6-0.8-1.2-1.8C-3.1,209.8-2.6,210.2-2.9,211.3z"/>
				<path d="M-12.1,139.1c-0.6,1.1-1.2,1.5-2.2,1.3C-14.4,139.1-13.4,139.3-12.1,139.1z"/>
				<path d="M10.4,2.9C9.8,3.3,9.5,3.6,9.3,3.6C8.9,3.5,8.5,3.2,8.4,2.9C8.3,2.8,8.8,2.2,8.9,2.2C9.4,2.3,9.7,2.6,10.4,2.9z"/>
				<path d="M50.1,101.2c-0.2,0.5-0.3,0.8-0.4,1.2C46.8,101.1,47.2,101.2,50.1,101.2z"/>
				<path d="M21,120.5c-0.1-1-0.7-0.6-1.7-0.3c1.6-2.3,1.3-2.1,2.2,0.1C21.3,120.4,21.2,120.5,21,120.5z"/>
				<path d="M14.4,177c0.3,0.3,0.2-0.1,0.5,1.3c-0.3,0.1-0.7,0.3-0.9,0.2C12.8,178.1,13.1,176.8,14.4,177z"/>
				<path d="M170.8,201c0.6-0.4,1.2-0.8,1.8-1.3C173.7,201.2,171.7,202,170.8,201z"/>
				<path d="M201.7,226.3c1-0.9,1-0.9,2.1-0.3C202.6,226.9,202.6,226.9,201.7,226.3z"/>
				<path d="M87.1,168.9c1,0.2,1.7,0.3,2.4,0.4C88.1,170.5,87.9,170.4,87.1,168.9z"/>
				<path d="M60.2,154.5c-0.7,0.1-1.1,0.2-1.8,0.3c0.1-0.5,0.1-0.9,0.3-1C59.3,153.2,59.8,153.6,60.2,154.5z"/>
				<path d="M235,235.9c0.9-0.7,0.5-0.8,1.8,0.1C235.9,236.8,236.3,236.8,235,235.9z"/>
				<path d="M265.6,231.9c0.3-0.1,0.4-0.1,0.4-0.1c1.6,0.3,1.3,1.4,0.6,1.4C265.8,233.2,265.7,232.6,265.6,231.9z"/>
				<path d="M11.9,158c-0.7-0.8-1-1.3-0.2-2C12.4,156.6,12.1,157.1,11.9,158z"/>
				<path d="M88.6,166.3c0,0.7,0.3,1-0.7,1.6c-0.1,0-0.6-0.2-0.6-0.4C87.4,166.6,88.1,166.5,88.6,166.3z"/>
				<path d="M57.4,99c-0.7-0.2-1.4-0.4-2.3-0.6C56.5,97.5,56.5,97.5,57.4,99z"/>
				<path d="M-12.4,100.8c0.4-0.5,0.7-0.8,1.1-1.3c0.3,0.6,0.6,1,0.9,1.5C-10.8,101.3-10.4,101.3-12.4,100.8z"/>
				<path d="M-10,107.2c0.5-0.2,1.1-0.4,1.7-0.7c0.1,0.4,0.2,0.7,0.2,1C-9.1,107.8-11.4,108.4-10,107.2z"/>
				<path d="M152.4,236.3c-1.6,0.3-1.6,0.3-1.8-0.9C151.5,235.2,152.1,235.4,152.4,236.3z"/>
				<path d="M126,229.4c1.1-0.4,1.1-0.4,1.6,1.1C127,230.9,127.4,231.1,126,229.4z"/>
				<path d="M281.1,229.7c-0.8,1.2-1.8-0.2-2.7,0.2C280.2,229.1,280.3,229.1,281.1,229.7z"/>
				<path d="M-6.8,126c0.7-0.5,1.5-1.1,2.7-0.5C-5.1,126.1-5.1,126.1-6.8,126z"/>
				<path d="M91.6,2.8c1.1-0.4,1.9-0.2,2.5,0.4C93.8,3.8,94.3,3.8,91.6,2.8z"/>
				<path d="M148.8,218.1c1.3-1.3,1.3-1.3,2.4,0C150.5,218.1,149.8,218.1,148.8,218.1z"/>
				<path d="M113.7,236.8c-0.2-1,0.9-1.3,2.2,0.4C114.6,237.5,113.4,236.5,113.7,236.8z"/>
				<path d="M107.1,226.5c-0.6,0.3-0.9,0.5-1.3,0.6c-0.1,0-0.6-0.4-0.6-0.5C106,225.3,106.2,225.9,107.1,226.5z"/>
				<path d="M134.8,191.1c0.5,0.3,1.1,0.5,1.9,0.9C135,192.5,135,192.5,134.8,191.1z"/>
				<path d="M168.4,198.9c-1.7-0.1-1.7-0.1-0.8-1.5C167.9,197.9,168.1,198.4,168.4,198.9z"/>
				<path d="M127.8,244.7c-0.3-1.2,1.5-1.1,2.6-0.4C127.4,244.7,127.7,244.7,127.8,244.7z"/>
				<path d="M94.1,199.7c-1.6-0.2-1.7-0.8-1.4-1.6C93.4,197.9,93.1,197.6,94.1,199.7z"/>
				<path d="M44.7,102.9c-2.4,1.5-1.9,1.4-2.4,1.1C43.3,102.8,43.6,102,44.7,102.9z"/>
				<path d="M75.9,231.2c-0.2-1.4-0.2-1.4,1.3-1.7C76.7,230.1,76.3,230.6,75.9,231.2z"/>
				<path d="M14.2,120.6c-1-0.7-0.4-1.3,0.1-2.1C15,119.6,15,119.6,14.2,120.6z"/>
				<path d="M277.9,193.8c2.1,0.2,1.8,0.1,1.9,0.4C277.4,195.1,276.9,195.6,277.9,193.8z"/>
				<path d="M128.8,166.9c-2.8,0.7-2.4,0.8-2.6,0.2c0.6-0.7,1.7-0.3,2.5-0.6C128.7,166.7,128.8,166.8,128.8,166.9z"/>
				<path d="M143.8,206.8c1.6-0.9,1.9,0.6,1.2,0.8C144.2,207.8,143.9,207.4,143.8,206.8z"/>
				<path d="M164.2,172.8c0.7-0.3,1.4-0.6,1.8,0.5C163.9,173.2,164.2,173.3,164.2,172.8z"/>
				<path d="M238.2,241.9c-0.3,1.1-1.2,1-2.2,1.2C236.5,242.3,237,241.9,238.2,241.9z"/>
				<path d="M71.6,214.7c-0.6-0.7-0.6-0.7-0.1-1.8C72.1,213.8,72.1,213.8,71.6,214.7z"/>
				<path d="M103,237.2c-1.4,0.4-1.4,0.4-2.2-0.6C101.2,236.3,100.8,236.2,103,237.2z"/>
				<path d="M99.6,207c1.9-0.5,1.9-0.5,2.8,0.4C99.7,207.4,100.3,207.5,99.6,207z"/>
				<path d="M276.5,221.9c1.1,0.2,0.7,0.1,1.3,0.5c-1.4,1.3-1.1,1.1-1.6,0.9C276.3,222.9,276.4,222.4,276.5,221.9z"/>
				<path d="M247.6,234.2c0.6-0.2,1.3-0.4,1.9-0.6C249.2,234.6,249.2,234.6,247.6,234.2z"/>
				<path d="M27.6,226.6c-1.1-0.7-0.4-1.2-0.3-2C28.4,225.3,28.2,225.9,27.6,226.6z"/>
				<path d="M7,83.7c0.6-0.1,1.2-0.2,1.8-0.3C8.1,84.8,8,84.8,7,83.7z"/>
				<path d="M133,228.6c-0.9-0.4-1.4-0.7-1.9-0.9c0.2-0.2,0.3-0.5,0.5-0.5C132.7,226.8,132.6,227.6,133,228.6z"/>
				<path d="M15.3,6.1C17.7,6,17.7,6,17.2,7.3C16.6,7,16.1,6.6,15.3,6.1z"/>
				<path d="M46.4,93.3c-0.7-0.5-0.8-0.2,0.3-1.4C47.5,92.4,47.6,92.1,46.4,93.3z"/>
				<path d="M125.8,179.8c1,1.4,1.3,0.9-0.3,1.9C125,181.3,125,181.6,125.8,179.8z"/>
				<path d="M273.2,219.4c0.4,0.6,0.7,0.9,1,1.3C272.8,221,272.8,221,273.2,219.4z"/>
				<path d="M186.9,233.1c-0.7-1-0.7-1,1.2-1.4C187.7,232.2,187.4,232.6,186.9,233.1z"/>
				<path d="M274.8,196.2c-1,0-1.6,0-2.5,0C273.1,195.6,273.1,195.6,274.8,196.2z"/>
				<path d="M126.8,164.9c0.3,0.1,0.4,0.1,0.4,0.1c0.2,0.5,0.4,1-0.3,1.3c-0.2,0.1-0.6-0.2-0.6-0.2
					C126.5,165.7,126.7,165.3,126.8,164.9z"/>
				<path d="M128,202c-0.1-1.3,0.5-1.5,1.3-1.8C129.9,200.8,130.1,200.4,128,202z"/>
				<path d="M56.9,91.6c-0.6,0.3-1.2,0.6-1.8,1C55.2,91.6,55.2,91.6,56.9,91.6z"/>
				<path d="M147.9,200.8c0.2,1.2,0.2,1.2-1.1,1.3C147.2,201.6,147.5,201.3,147.9,200.8z"/>
				<path d="M17.9,107.9c-0.5,1-1.1,1.1-1.6,0.7c-0.1-0.1,0-0.6,0-0.6C16.7,108,17.2,108,17.9,107.9z"/>
				<path d="M17,185c-0.8-0.6-1.1-1.1-0.5-1.9C17.4,183.6,17.4,184.1,17,185z"/>
				<path d="M276.5,213.2c-0.2,0.4-0.5,0.9-0.7,1.4C274.9,214,274.9,214,276.5,213.2z"/>
				<path d="M150,207.2c-0.5,0.3-0.8,0.5-1.2,0.6c-0.1,0-0.6-0.5-0.5-0.6c0.2-0.3,0.5-0.5,0.9-0.7
					C149.3,206.5,149.6,206.9,150,207.2z"/>
				<path d="M267.7,226.1c-1-0.7-0.5-1.2,0.2-1.9C268.5,225.1,268.5,225.6,267.7,226.1z"/>
				<path d="M153,244.7c-1.5,0.1-1.5,0.1-0.9-1.6C152.5,243.7,152.7,244.2,153,244.7z"/>
				<path d="M18.8,172.9c0.5-0.4,0.9-0.6,1.5-1c0,0.7,0,1.1,0,1.8C19.9,173.4,19.4,173.2,18.8,172.9z"/>
				<path d="M110.6,212.6c0.6-0.2,1.1-0.4,1.8-0.6C112,213.4,112,213.4,110.6,212.6z"/>
				<path d="M64.7,140.6c1,0.6,0.4,1.2,0.6,1.9C64.2,141.9,64.2,141.9,64.7,140.6z"/>
				<path d="M54,144.1c-0.5,0.2-1.2,0.8-1.7-0.3c0-0.1,0.4-0.5,0.6-0.5C53.1,143.4,53.4,143.7,54,144.1z"/>
				<path d="M268.9,213.7c1-0.3,1.7-0.6,2.3,0.2C270.4,214.4,269.8,214.6,268.9,213.7z"/>
				<path d="M35.5,161c-0.9,0.6-0.5,0.7-1.6-0.1C34.5,160.4,34,160.3,35.5,161z"/>
				<path d="M152.8,216.5c1,1.1,1.1,0.7-0.2,1.6C152.1,217.7,152.1,218,152.8,216.5z"/>
				<path d="M19.4,171.3c-0.6,0.8-1.4,0.9-2.7,0.7C17.9,170.8,19.8,171.7,19.4,171.3z"/>
				<path d="M104,148.6c0-0.4,0-0.8,0-1.4c0.4,0.2,0.8,0.4,0.9,0.6C105,148.2,104.9,148.7,104,148.6z"/>
				<path d="M147,234.8c-0.4,0.2,0,0.1-1.2,0.4c0-0.2-0.2-0.5-0.1-0.6c0.7-0.9,1.1-0.2,1.4,0C147.1,234.6,147,234.8,147,234.8z"/>
				<path d="M133.9,244.2c-0.5,1-1.3,1-1.9,1.1C131.7,244.8,131.4,245,133.9,244.2z"/>
				<path d="M-6.5,239.8c-0.8,0.5-1.2,0.8-2,1.3C-8.4,240-8.1,239.5-6.5,239.8z"/>
				<path d="M96.3,150.2c-1.4,0-1.4,0-1.9-0.9C95.9,149,96.2,150.3,96.3,150.2z"/>
				<path d="M17.1,106.9c-0.9,0.7-1.4,0.4-1.8-0.4C15.9,106.7,16.5,106.8,17.1,106.9z"/>
				<path d="M96.3,150.2c0.6,0.1,1.3,0.2,2,0.3C97,151.4,96.9,151.4,96.3,150.2C96.3,150.2,96.3,150.2,96.3,150.2z"/>
				<path d="M0,108.3c-0.8,0.1-1.7,0.9-2.5-0.6C-1.4,108-0.7,108.2,0,108.3z"/>
				<path d="M104.1,242.6c-1.3,1.3-1,1.2-1.5,0.7c-0.1-0.7,0-1.2,1-1.2C103.8,242.3,104,242.4,104.1,242.6z"/>
				<path d="M-16.7,85.8c0.8-0.9,1.3-0.7,1.9-0.3C-14.9,86.1-14.5,86-16.7,85.8z"/>
				<path d="M283.3,211.4c0.3,0.9-0.1,1.4-0.8,1.7C282.1,212.8,282,213.2,283.3,211.4z"/>
				<path d="M293.6,213c-0.8-0.1-1.2-0.1-1.9-0.1c0.5-0.5,0.8-0.8,1.3-1.2C293.2,212.1,293.3,212.4,293.6,213z"/>
				<path d="M12.8,6.3c0.7,0.2,1.2,0.4,1.9,0.6C13.7,7.5,13.3,7.1,12.8,6.3z"/>
				<path d="M151.1,137.6c-0.8-0.7-0.6-0.5-0.2-1.1C151.9,137.2,151.9,137,151.1,137.6z"/>
				<path d="M91.2,201c0.8-0.1,1.3-0.2,2.1-0.3C92.8,201.7,92.3,201.9,91.2,201z"/>
				<path d="M102.9,178.2c1.3-1.8,1-1.7,1.2-0.5C104.1,178.4,103.8,178.4,102.9,178.2z"/>
				<path d="M95,136.8c1.2-0.2,1.2-0.2,1.2,1C95.7,137.4,95.4,137.1,95,136.8z"/>
				<path d="M67.5,188.2c0.4-0.3,0.7-0.6,1.1-1c0.2,0.4,0.3,0.6,0.3,0.7C68.7,188.5,68.4,189,67.5,188.2z"/>
				<path d="M6.8,108.6c-0.1-0.3-0.4-0.8-0.2-1c0.4-0.4,0.9-0.3,1.4,0.3C6.6,108.6,6.8,108.5,6.8,108.6z"/>
				<path d="M49.4,108.6c-0.5-0.2-1-0.4-1.6-0.6C48.7,107.4,48.7,107.4,49.4,108.6z"/>
				<path d="M73.4,109.2c0.7,0.7,0.8,0.4,0.2,1.3C72.9,110,72.9,110.3,73.4,109.2z"/>
				<path d="M14.1,227.7c-0.1-0.3-0.3-0.6-0.4-1c0,0,0.5-0.2,0.5-0.2c0.2,0.3,0.4,0.6,0.5,0.8C14.6,227.6,14.3,227.7,14.1,227.7z"/>
				<path d="M284.7,228.8c0.5-0.7,0-0.6,1.6-0.4C286.1,229.1,286.5,229,284.7,228.8z"/>
				<path d="M80.6,235.1c-0.5-0.8-0.3-1.1,0.3-1.4c0.1,0,0.5,0.2,0.5,0.2C81.1,234.3,80.9,234.6,80.6,235.1z"/>
				<path d="M251.9,207.3c-0.2,0.7,0.1,0.4-0.9,1.1c-0.4-0.3-0.5,0,0.4-1.3C251.6,207.2,251.7,207.3,251.9,207.3z"/>
				<path d="M68.8,183.8c0.4,1.1,0.4,1.1-0.7,1.8C68.4,184.9,68.6,184.4,68.8,183.8z"/>
				<path d="M82.4,174.1c-1.2-1-0.1-1.1,0.2-1.5C83.1,172.8,83.1,172.5,82.4,174.1z"/>
				<path d="M34.1,194.6c-0.8,0.2-1.2,0.3-1.7,0.4C32.6,193.8,32.6,193.8,34.1,194.6z"/>
				<path d="M22.8,181.8c-0.5,0.8-0.1,0.7-1.7,0.3C21.7,181.3,22.2,181.4,22.8,181.8z"/>
				<path d="M96.1,201.3c1.2,0.8,0.4,1.3,0.3,1.8C95.8,203,96,203.3,96.1,201.3z"/>
				<path d="M102.3,150.9c-0.4-0.3-0.7-0.5-1.1-0.8C102.4,149.8,102.4,149.8,102.3,150.9z"/>
				<path d="M72.2,142.8c-1.7,0.1-1.4,0.3-1.5-0.4C72.4,142.2,72.1,142.1,72.2,142.8z"/>
				<path d="M68.6,117.7c-0.2-0.3-0.5-0.6-0.8-0.9C68.7,116.8,68.7,116.8,68.6,117.7z"/>
				<path d="M40.2,87.9c-0.8-0.4-0.8-0.9,0-1.4C40.9,87,40.8,87.4,40.2,87.9z"/>
				<path d="M52.4,93.7c1.9-0.1,1.6-0.2,1.7,0.2c-0.9,0.3-0.4,0.3-1.7,0.2C52.4,94,52.4,93.8,52.4,93.7z"/>
				<path d="M2.6,99.6c-0.3-1.1-0.4-1.7,1.1-1.6C3.4,98.5,3.1,98.9,2.6,99.6z"/>
				<path d="M53.2,112.4c-0.4,0.1-0.8,0.2-1.3,0.4C52,112,52,112,53.2,112.4z"/>
				<path d="M145.8,187.6c1.7,0.4,1.5,0.2,1.3,0.7C145.4,188,145.6,188.2,145.8,187.6z"/>
				<path d="M141.4,190.2c-0.3,0.9-0.7,1.1-1.7,0.7C140.8,190.3,140.3,190.5,141.4,190.2z"/>
				<path d="M121.2,200.4c0.2-0.3,0.4-0.5,0.7-0.8c0,0,0.3,0.1,0.3,0.1c-0.1,0.3-0.2,0.6-0.4,0.9
					C121.6,200.5,121.4,200.5,121.2,200.4z"/>
				<path d="M167.3,203.3c-1.8-0.3-1.5-0.1-1.4-0.7C167.7,202.8,167.4,202.6,167.3,203.3z"/>
				<path d="M221.5,211.9c1.3-0.2,1.6,0.1,1.3,0.9C222.4,212.6,222.1,212.3,221.5,211.9z"/>
				<path d="M275.9,211.6c1.6,0.4,1.4,0.2,1.2,0.8C275.5,212.2,275.8,212.4,275.9,211.6z"/>
				<path d="M201.4,220c1,1.5,1,1.1,0.2,1.6C200.7,220.7,200.9,221.1,201.4,220z"/>
				<path d="M-13.6,171c0.4-0.3,0.8-0.5,1.2-0.8c0.1,0.3,0.3,0.4,0.2,0.5C-12.4,171.2-12.8,171.4-13.6,171z"/>
				<path d="M135.3,231.4c-0.5-0.4-0.8-0.7-1.1-0.9c0.2-0.1,0.4-0.4,0.6-0.4C135.4,230.1,135.6,230.4,135.3,231.4z"/>
				<path d="M41.1,237.6c-1,0.8-0.7,0.6-1.3,0.2C40.6,236.9,40.2,236.9,41.1,237.6z"/>
				<path d="M23.3,165.9c-0.6,0.3-0.9,0.5-1.4,0.8C22,165.7,22,165.7,23.3,165.9z"/>
				<path d="M139.8,161c2,0,1.7-0.1,1.7,0.3C139.6,161.3,139.9,161.4,139.8,161z"/>
				<path d="M230.6,243.6c-0.2,0.9-0.6,1-1.7,0.8C229.6,244.1,230,243.9,230.6,243.6z"/>
				<path d="M16,120.9c0.7-0.1,1-0.2,1.8-0.3C17.2,121.3,16.8,121.5,16,120.9z"/>
				<path d="M268.3,195.1c-1.1,0.8-0.8,0.7-1.2,0.6c0.3-0.9,0.1-0.6,0.9-0.9C268.1,194.9,268.2,195,268.3,195.1z"/>
				<path d="M-12.2,76.6c-0.8,1.1-1.3,0.8-2.3,0.3C-13.5,76.8-13.1,76.7-12.2,76.6z"/>
				<path d="M1.4,101.3c0.2-0.6,0.4-1,0.5-1.4C2.6,100.5,2.8,100.9,1.4,101.3z"/>
				<path d="M71.2,227.6c0.8,0.9,0.8,0.9-0.2,1.3C71.1,228.5,71.1,228.2,71.2,227.6z"/>
				<path d="M19.4,171.3c0.3-1,0.3-1,1.7-0.2C19.1,171.3,19.3,171.3,19.4,171.3z"/>
				<path d="M19.3,98.3c-0.3,0.9-0.8,0.8-1.8,0.4C18.8,98,18.3,98.2,19.3,98.3z"/>
				<path d="M248.6,0.4c-0.5,0.2-0.9,0.4-1.4,0.6C247.5,0.1,247.5,0.1,248.6,0.4z"/>
				<path d="M277.8,231.5c-0.3-0.7-0.5-0.5,0.7-1C278.8,231,278.9,230.8,277.8,231.5z"/>
				<path d="M153.7,239.2c0.7,0,1.2,0,1.6,0C155.6,239.2,155.2,240.8,153.7,239.2z"/>
				<path d="M52.4,26c0.8-0.1,1.2-0.1,1.8-0.2C53.8,26.6,53.4,26.7,52.4,26z"/>
				<path d="M91.9,209.9c-0.4,0.1-0.8,0.3-1.2,0.5C90.8,209.6,90.8,209.6,91.9,209.9z"/>
				<path d="M258.6,208.3c-1.2,0.2-1,0.3-1-0.4C258.8,208,258.7,207.9,258.6,208.3z"/>
				<path d="M52.5,97.2c-0.4-0.9-0.4-0.7-0.1-1C53.4,96.9,53.4,96.7,52.5,97.2L52.5,97.2z"/>
				<path d="M71.1,115.8c1.1,1.1,1,0.9,0.7,1.2C70.4,116,70.5,116.3,71.1,115.8z"/>
				<path d="M116.4,204.5c0.4-0.1,0.8-0.3,1.2-0.4C117.4,205.1,117.4,205.1,116.4,204.5z"/>
				<path d="M103.1,203.6c0.7,0.2,1.1,0.4,1.9,0.6C103.9,204.7,103.4,204.8,103.1,203.6z"/>
				<path d="M22.3,118.4c-1.1-0.8-1.1-0.6-0.7-1C22.9,118,22.8,117.8,22.3,118.4z"/>
				<path d="M64.7,139.1c-1.3,0.6-1.1,0.6-1.4,0.1C64.7,138.7,64.4,138.7,64.7,139.1z"/>
				<path d="M218.4,225.7c-1,0.6-1,0-1.6-0.7C217.6,225.4,218,225.5,218.4,225.7z"/>
				<path d="M8.9,246.4c-1.3,0-1.1,0.1-1.1-0.2C9.1,245.9,8.9,245.8,8.9,246.4z"/>
				<path d="M39.3,237.8c-1.4,0.1-1.2,0.2-1.3-0.1c0.8-0.5,0.5-0.4,1.3-0.2C39.3,237.6,39.3,237.7,39.3,237.8z"/>
				<path d="M-15.6,119.8c0.3,0.2,0.6,0.4,1,0.6C-15.7,121-15.4,120.1-15.6,119.8z"/>
				<path d="M258.4,231.7c1.5,0.1,1.3,0,1.3,0.4c-1.1,0.1-0.7,0.1-1.4-0.1C258.3,231.9,258.4,231.8,258.4,231.7z"/>
				<path d="M42.1,189c-0.6-0.9-0.6-0.7-0.2-0.9C42.6,188.9,42.6,188.7,42.1,189z"/>
				<path d="M108.5,227.5c-1.5,0.4-1.1,0.4-1.5-0.2C107.9,226.9,107.5,226.9,108.5,227.5z"/>
				<path d="M3.1,117.7c0,0,0.3,0.1,0.3,0.1c-0.1,0.3-0.1,0.6-0.2,1C2.5,118.6,2.5,118.8,3.1,117.7z"/>
				<path d="M261,214.5c-0.8,0.1-1.1-0.1-0.9-0.6c0.1-0.1,0.3-0.2,0.4-0.3C260.7,213.9,260.8,214.2,261,214.5z"/>
				<path d="M206.4,210.9c-1,0.5-0.7,0.5-1.4,0C205.7,210.4,205.4,210.5,206.4,210.9z"/>
				<path d="M85.8,211.4c-1.6-0.1-1.4,0-1.3-0.4C86.1,211.1,85.8,211,85.8,211.4z"/>
				<path d="M131.9,171.9c-1.4,0-1.2,0.1-1.2-0.3C132.1,171.3,131.8,171.2,131.9,171.9z"/>
				<path d="M238.6,235.8c0,1.1,0,1.1-0.7,1.6C237.6,237.2,237.6,237.4,238.6,235.8z"/>
				<path d="M150.7,209c-1.3,0.5-0.9,0.4-1.4,0C150.1,208.5,149.7,208.6,150.7,209z"/>
				<path d="M263.2,235.6c1.2,0.6,1.1,0.4,0.8,0.9C262.6,235.9,262.8,236.1,263.2,235.6z"/>
				<path d="M86.2,208.2c0.6,0.4,0.8,0.6,1.3,0.9C86.5,209.4,86.2,209.2,86.2,208.2z"/>
				<path d="M273.5,204.7c-0.7,0.5-1.1,0.4-1.5-0.2C272.6,204.1,273,204.2,273.5,204.7z"/>
				<path d="M270.7,205.2c-0.6-0.7-0.5-0.5,0-0.9C271.4,205,271.4,204.8,270.7,205.2z"/>
				<path d="M-14.5,203.5c-0.9,0.6-0.5,0.6-1.4,0.2C-15.3,203.1-15.6,203.1-14.5,203.5z"/>
				<path d="M280.2,214.5c0.4-0.9,0.9-0.6,1.4-0.5C281.6,214.5,281.9,214.3,280.2,214.5z"/>
				<path d="M-9.1,180.2c0.8,0.8,0.8,0.5,0.2,1.1C-9.4,180.9-9.4,181.2-9.1,180.2z"/>
				<path d="M180.5,190c-0.3,0.3-0.4,0.4-0.5,0.6c-0.1-0.1-0.3-0.3-0.4-0.4c0-0.1,0.2-0.3,0.4-0.3
					C180.1,189.8,180.3,189.9,180.5,190z"/>
				<path d="M124.5,189.7c0.3,0.3,0.5,0.5,0.6,0.7c0,0.1-0.2,0.3-0.3,0.3C123.7,190.3,124.1,190.2,124.5,189.7z"/>
				<path d="M271.4,229.8c-1.1,0.2-0.8,0.4-1.4-0.3C270.8,229.2,270.5,229.1,271.4,229.8z"/>
				<path d="M101.2,239.2c0.6-0.2,0.4-0.4,1,0.6C101.6,240,101.8,240.1,101.2,239.2z"/>
				<path d="M-14.3,103.7c-1.4,0.3-1.1,0.3-1.3-0.1C-14.2,103.1-14.5,103.1-14.3,103.7z"/>
				<path d="M77.6,99.5c-0.6-0.6-0.6-0.3,0-0.9C77.9,98.9,77.9,98.6,77.6,99.5z"/>
				<path d="M109.1,241c0.2-0.4,0.3-0.7,0.6-1.3C110.4,240.6,109.8,240.8,109.1,241z"/>
				<path d="M77.3,97.8c1.4-0.4,1.1-0.4,1.3,0.1C77.2,98.1,77.4,98.2,77.3,97.8z"/>
				<path d="M50.6,93.1c1.3-0.2,1.1-0.3,1.2,0.1C50.4,93.3,50.7,93.4,50.6,93.1z"/>
				<path d="M187,139.2c0.2,0.1,0.3,0.2,0.5,0.3c-0.2,0.1-0.4,0.3-0.6,0.3c-0.1,0-0.3-0.2-0.3-0.3
					C186.6,139.4,186.8,139.3,187,139.2z"/>
				<path d="M64.4,137.8c-1.1-0.3-0.9-0.2-0.8-0.6C64.7,137.6,64.6,137.4,64.4,137.8z"/>
				<path d="M68.6,135.1c0.7-0.3,0.8-0.4,1.1-0.5c0.1,0,0.3,0.3,0.3,0.4C69.4,135.5,69.1,135.2,68.6,135.1z"/>
				<path d="M85.7,13.1c-0.4,0.1-0.6,0.2-0.8,0.2c-0.1,0-0.3-0.3-0.2-0.3C85.2,12.4,85.5,12.9,85.7,13.1z"/>
				<path d="M90.6,6.5c0.3,0,0.7,0,1.3,0.1C91.4,7.3,91,7,90.5,6.9C90.3,6.8,90.5,6.6,90.6,6.5z"/>
				<path d="M85.4,2.3c-0.1,0.6,0.1,0.8-0.8,0.8C85.1,2.1,85,2.2,85.4,2.3z"/>
				<path d="M271.6,233.5c-0.2,0.3,0,0.3-1.1,0C270.8,233,270.6,233,271.6,233.5z"/>
				<path d="M86.5,0.2C87.4,0,87.2,0,87.3,0.5C86.4,0.5,86.5,0.6,86.5,0.2z"/>
				<path d="M-7,129.8c0.2,0.3,0.4,0.5,0.5,0.6c-0.2,0.1-0.4,0.3-0.6,0.3c-0.1,0-0.4-0.2-0.4-0.3C-7.5,130.2-7.3,130.1-7,129.8z"/>
				<path d="M265.7,223.8c0.7-0.8,0.5-0.7,0.8-0.5C266,224.2,266.2,224.1,265.7,223.8z"/>
				<path d="M49.8,224.7c0.9,0.5,0.8,0.3,0.6,0.7C49.3,225,49.4,225.2,49.8,224.7z"/>
				<path d="M71.2,246c-1,0.4-0.7,0.5-1.3-0.1C70.5,245.6,70.1,245.6,71.2,246z"/>
				<path d="M128.7,234.1c-0.5-0.5-0.5-0.3,0.1-0.8C129.1,233.8,129.1,233.6,128.7,234.1z"/>
				<path d="M83.7,171.1c-0.8,0-0.6,0.1-0.8-0.4C83.5,170.6,83.3,170.6,83.7,171.1z"/>
				<path d="M227.4,220.5c-0.3,0-0.6-0.1-0.8-0.1c0-0.1,0.1-0.3,0.1-0.3C227.7,220.2,227.5,220.3,227.4,220.5z"/>
				<path d="M201.8,218.6c0.5,0.6,0.5,0.4-0.1,0.9C201.3,219,201.3,219.3,201.8,218.6z"/>
				<path d="M100,185.2c-0.4,0.8-0.3,0.7-0.7,0.5C99.7,185,99.6,185.1,100,185.2z"/>
				<path d="M201.2,182.8c0.2,0.4,0.6,0.7-0.2,1c-0.1,0-0.4-0.2-0.4-0.3C200.7,183.3,200.9,183.2,201.2,182.8z"/>
				<path d="M5,218.1c0.2-1,0.1-0.8,0.6-0.7C5.3,218.3,5.4,218.2,5,218.1z"/>
				<path d="M269.8,208.7c-0.6,0.7-0.4,0.6-1,0.3C269.5,208.4,269.3,208.4,269.8,208.7z"/>
				<path d="M27.3,165.2c-0.8,0.3-0.5,0.3-1.1-0.1C26.6,164.7,26.3,164.7,27.3,165.2z"/>
				<path d="M88.9,134.1c-0.6,0.4-0.4,0.3-0.8,0.1C88.7,133.9,88.5,133.9,88.9,134.1z"/>
				<path d="M98.4,148c0.2,0.3,0.3,0.2-0.2,0.6C98,148.1,97.9,148.3,98.4,148z"/>
				<path d="M-11.5,106.3c1.2,0,1.4,0.4,1.5,0.9C-10.3,107.5-10,107.6-11.5,106.3z"/>
				<path d="M42.9,239.8c0.5,0.5,0.5,0.3,0,0.8C42.4,240.1,42.5,240.3,42.9,239.8z"/>
				<path d="M-5.5,142.1c-0.9,0.2-0.6,0.3-1.1-0.4C-6,141.6-6.3,141.4-5.5,142.1z"/>
				<path d="M241.5,9.6c0.6,0.9,0.6,0.7,0.2,0.9C241.1,9.7,241.1,9.9,241.5,9.6z"/>
				<path d="M109.6,150.5c0,0-0.3-0.2-0.2-0.2c0.2-0.2,0.4-0.4,0.5-0.7C110.4,150,110.5,149.8,109.6,150.5z"/>
				<path d="M7.1,232.1c-0.6,0.4-0.4,0.4-0.9,0.1C6.7,231.7,6.5,231.8,7.1,232.1z"/>
				<path d="M35.1,163c-1.1-0.1-1,0-0.9-0.5C35.3,162.8,35.2,162.7,35.1,163z"/>
				<path d="M70.6,243.4c-0.9,0.3-0.7,0.4-0.9-0.2C70.6,243.1,70.5,243.1,70.6,243.4z"/>
				<path d="M18.6,131c-0.3,0.4-0.1,0.4-0.7,0.1C18.2,130.8,18,130.8,18.6,131z"/>
				<path d="M137.6,188c-0.4-0.2-0.4-0.1-0.2-0.6C137.8,187.6,137.8,187.4,137.6,188z"/>
				<path d="M145.9,183c0.3,0.9,0.3,0.6,0,1C145.3,183.7,144.9,183.7,145.9,183z"/>
				<path d="M89.6,238.8c-0.8,0.5-0.5,0.5-1.1,0C89.2,238.3,88.9,238.4,89.6,238.8z"/>
				<path d="M46.8,95.4c0.3,0.1,0.6,0.2,0.8,0.4c0,0-0.1,0.3-0.1,0.3C46.3,95.8,46.5,95.9,46.8,95.4z"/>
				<path d="M260.1,187.4c0.5-0.3,0.3-0.4,0.9,0.1C260.4,188,260.6,188,260.1,187.4z"/>
				<path d="M31.2,71.4c1.1,0.5,1,0.3,0.7,0.7C30.8,71.6,31,71.7,31.2,71.4z"/>
				<path d="M87.8,139.8c-0.3-0.2-0.6-0.3-0.5-0.3c0.1-0.2,0.2-0.4,0.4-0.5c0,0,0.4,0.1,0.4,0.2C88,139.4,87.9,139.6,87.8,139.8z"/>
				<path d="M143.2,192.7c0.8,0.6,0.7,0.4,0.3,0.8C142.8,192.9,142.8,193,143.2,192.7z"/>
				<path d="M64.2,230.1c0-0.3-0.1-0.5-0.1-0.8c0.1,0,0.3,0,0.4,0C64.7,230.2,64.6,230,64.2,230.1z"/>
				<path d="M132.7,194c-1.1,0.4-0.9,0.4-1.1,0.1C132.7,193.7,132.5,193.7,132.7,194z"/>
				<path d="M146.4,196.4c0.6,0.5,0.5,0.3,0.1,0.8C145.9,196.7,145.9,196.9,146.4,196.4z"/>
				<path d="M56.4,87.7c0.2,0.5,0.4,0.3-0.7,0.7C55.4,87.9,55.3,88.1,56.4,87.7z"/>
				<path d="M84.6,87c1,0.5,0.8,0.3,0.7,0.6C84.3,87.3,84.4,87.4,84.6,87z"/>
				<path d="M275.4,200c-0.3-1-0.3-0.8,0.2-0.9C275.8,200.1,275.9,199.9,275.4,200z"/>
				<path d="M-9.9,137.5c-0.5,0.5-0.2,0.5-1.1,0.2C-10.6,137.3-10.9,137.4-9.9,137.5z"/>
				<path d="M29.2,175.3c1.8-0.6,1.5-0.6,1.7-0.1C29.2,175.5,29.5,175.6,29.2,175.3z"/>
				<path d="M251.6,204.4c-0.4,0.8-0.2,0.7-0.8,0.5C251.4,204.1,251.2,204.2,251.6,204.4z"/>
				<path d="M52.5,97.2c0.2,1.1,0.5,1-1.1,0.3C51.4,97.2,51.2,97.2,52.5,97.2C52.5,97.2,52.5,97.2,52.5,97.2z"/>
				<path d="M265,243.2c-0.8,0.8-0.5,0.8-1.2,0.3C264.6,242.6,264.3,242.6,265,243.2z"/>
				<path d="M118,208.9c0.6,0.7,0.6,0.5-0.1,0.9C117.4,209.1,117.4,209.3,118,208.9z"/>
				<path d="M32.2,136.3c-0.6,0.7-0.4,0.6-0.7,0.5C31.9,136,31.7,136,32.2,136.3z"/>
				<path d="M59.7,87.4c0.5,0.5,0.5,0.3,0.1,0.7C59.3,87.7,59.3,87.9,59.7,87.4z"/>
			</g>
			<g>
				
					<rect x="-17.6" y="-0.6" transform="matrix(1 -9.696891e-03 9.696891e-03 1 -0.8754 1.3463)" class="st1" width="312" height="183"/>
				<path d="M67.1,178.7c-0.8-0.5-1.3-1.2-0.7-2.2c0.8,0.6,1.4,1.2,1.1,2.2C67.3,178.7,67.2,178.7,67.1,178.7z"/>
				<path d="M226.7,176.2c1.6-0.3,1.6-0.3,2.1,0.9C227.3,177.1,227.7,177.3,226.7,176.2z"/>
				<path d="M243,175.8c1.1,0.1,1.1,0.6,1,1.1C243.5,176.9,243.7,177.1,243,175.8z"/>
				<path d="M255.8,80.9c1.5,0.5,0.9,1.5,1.3,2c0.6,0.9,0.1,1.5-0.3,2.2c0.4,0.3,0.8,0.6,1.2,0.9c1.5-0.7,2.9-1.8,4.8-1.2
					c0.3-0.7,0.6-1.3,0.8-1.8c0.9-0.1,1.6-0.2,2.6-0.3c-0.7,1.9-1.6,1.9,0.2,2.7c1,0.5,0.8,1.1,0.3,1.8c-0.9-0.2-1.8-0.4-2.7-0.6
					c-1.7,0.5-1.3,2.1-2.4,3.1c-0.7-0.5-1.2-1.2-2.3-0.9c-0.3,0.1-1.1-0.2-1.2-0.4c-0.5-1.9-2.5-0.2-4-2c-0.5-0.6-1.5-1-2.5-1.5
					c0-0.7,0.7-1.1,1.4-1.3c0.8-0.2,1.1-0.7,1.4-1.3C254.8,81.7,255.4,81.3,255.8,80.9z M262.9,86.4c-0.7-0.2-1.1-0.5-1.4-0.4
					c-0.9,0.3-1,0.9-0.8,1.7C261.3,87.3,261.9,87,262.9,86.4z"/>
				<path d="M195,59.8c0-0.3,0-0.6,0-0.9c-1.9,0-1.9,0-2.9,1.5c-0.9,0.1-1.7,0.2-2.8,0.3c0.2-0.4,0.3-0.9,0.6-1.2
					c1.6-1.6,1.6-2.2-0.2-3.4c5.8-1.6,6.4,3.7,5.5,0.3c0.5,0,1-0.1,1.6-0.1c0.2,0.9,0.3,1.8,0.5,2.6c2-0.5,2.8-0.1,3.8,1.7
					c-1.7,1.2-3.1,2.9-5.8,2.8c-0.5,0-1.1,0.1-1.3-0.7c0.8,0,1.4-0.8,2.3-0.1c0.1,0.1,0.8-0.1,1-0.4c0.1-0.2-0.1-0.7-0.4-0.8
					c-0.4-0.2-0.9-0.2-3.2-0.4C193.7,60,194.3,59.8,195,59.8c0.3,0.2,0.6,0.4,1,0.7c0.3-0.5,0.5-0.8,0.8-1.4
					C195.9,59.4,195.5,59.6,195,59.8z"/>
				<path d="M228.5,102.8c0.1-0.3,0.1-0.6,0.2-1.1c0.9,0.3,1.6,0.5,2.5,0.8c-0.7,1-1.3,1.7-1.9,2.6c1.1,1,0.6,2-0.1,3.3
					c-0.7-1.2-0.2-1-2.4-0.2c-2.2,0.8-3.5-1.3-2.6-2c2.4-2,3.2-1.6,2.8-2.8C226.6,102.5,227.9,103,228.5,102.8z"/>
				<path d="M62.5,85.9c-1.9,0.9-3.9,1.5-6-0.1c0.2-0.5,0.4-1,0.6-1.7c1,0.4,1.7,0.8,2.6,0.3c0.4-0.2,1.3,0.1,2,0.2
					c0.9-0.9-0.5-1.3-0.6-2c0.4-0.9,0.8-1.9,1.4-3.2c0.7,1.6,0.5,2.9,1.3,4c0.7,1.1,1.2,2.2,1.8,3.4C64.1,87.1,64.1,87.1,62.5,85.9z
					"/>
				<path d="M81.4,79.5c-0.8,0.5-2,0.6-1.5,1.9c-1.1,0.3-2.1,0.4-3,0c1.6-1.7,2.2-1.9,1-2.5c-0.3,0.9-2,1.1-0.9,2.4
					c-0.1,1.3-1.5,0.9-2.2,1.3c-0.9-0.4-1.6-0.8-2.5-1.2c1-0.7,1.9-1.3,2.2-2.5c0.1-0.6,1.2-1,2-1.6c0.8,1.2,2.8,0.5,3.3,2.1
					c0.4-0.3,0.5-0.1-0.1-1.3c-0.4-0.8-0.4-0.8,1-1.2c0.5,0.5-0.2,1.4,0.9,1.7C81.5,78.7,81.3,79.6,81.4,79.5z"/>
				<path d="M7.9,57.1c2.3-2.1,1.9,1.7,3.9,0.3c-0.3-0.4-0.6-0.9-1-1.4c0.5-0.1,0.9-0.2,1.3-0.4c1.3,1.4,2.9,2.6,3.5,4.4
					c0.3,0.9,0.4,0.8-0.4,1.9C11.7,61.6,10.3,58.9,7.9,57.1z"/>
				<path d="M254.9,68.4c0.4-0.7,0.6-1.2,0.9-1.7c0.4,0.1,0.8,0.1,1.3,0.2c-0.5,1.2-1.5,1.8-2.8,2.2c1.5,0.3,2.9,0.3,4.1-0.8
					c-0.1,1.7-2.2,1.5-3.1,2.6c1,0.7,1.6-0.2,2.4-0.3c0.2,0.8,0.2,0.8-1.4,1.9c-1.3-0.3-2.1-0.9-2.2-1.9c-1.2-0.1-2.2-0.3-3.4-0.4
					c0.2-0.5,0.3-0.9,0.4-1.3c-0.5-0.6-2-0.3-2-1.4c0-0.8-0.9-1.5,0.1-2.4c0.8,0.9,1.3,1.9,2.3,2.5
					C252.3,68.2,253.6,68.2,254.9,68.4z"/>
				<path d="M281,131.3c0.8-0.8,1.8-1.2,3-1.4c-0.2-1.3,2-0.5,1.8-1.7c1,0.7,1.8,1.2,2.7,1.8c-0.8,0.9-3-0.4-3.6,1.4
					c0.5,0.3,1,0.5,1.5,0.8c-0.3,1-0.6,1.9-0.9,3.1C283.4,134.2,281.7,133.2,281,131.3z"/>
				<path d="M284.2,92.3c-0.4-0.3-0.6-0.5-0.9-0.7c0.8-0.4,1.3-1,0.8-1.9c2.1,0.9,2.3,1.2,1.3,2.7c1.6-0.3,0.9-0.2,2.6-0.1
					c-0.6,0.3-0.9,0.5-1.2,0.7c0.8,2.3-1.9,1.9-2.3,2.6c-0.6,1.1-2.1,0.1-2.9,0.8c-3.8-2.8-1.8-0.7,1.5-2c-0.4-0.5-0.7-0.9-1.1-1.4
					C282.8,92.7,283.4,92.6,284.2,92.3z"/>
				<path d="M188.1,50.3c-1.3-1.2,0-2.2-0.3-3.1c0.7-0.4,1.4-0.8,2-1.2c-0.5-1.7-0.5-1.7,2.5-2.5c0.4,0.6,0.4,1.9-0.3,4.6
					C190.7,48.7,189.4,49.5,188.1,50.3z"/>
				<path d="M247.2,19c-0.3-0.5-0.6-1-1-1.3c-1.2-0.7-1.8-1.7-2.2-2.8c-0.1-0.4-0.5-0.8-0.7-1.2c-0.1-0.2,0-0.5,0-0.9
					c2.3,0.5,5,2.8,4.4,4.5c-0.4,1,1.5,3-0.2,3.8c-1.2,0.6-2.3,0.4-3.3-0.6C245.1,20,245.9,19.6,247.2,19z"/>
				<path d="M260,82c-0.7-1-3.1-1.7,0.4-2.7c0.8-0.2,1.6-0.7,2.7-0.3c0.7,0.2,1.7-0.1,2.5-0.2c0.5,0.8,0.4,1.4-0.5,1.9
					c-0.8,0.5-1.5,1.2-2.4,1.9C259.7,81.9,259.9,81.9,260,82z"/>
				<path d="M278.5,128.7c2.3-1.2,3.5-3.1,4.6-4.8c1.7,0.6,2.2,1.6,0.8,2.4c-2.7,1.6-2.6,5-4.3,4.6c-0.8-0.2-1-0.6-0.8-1.3
					C278.9,129.4,278.7,129.1,278.5,128.7z"/>
				<path d="M65.4,78.4c3,0.5,3.4,2,0.9,4.5c-0.9-0.4-2.2-0.3-2.4-1.5C63.5,79.6,65,78.8,65.4,78.4z"/>
				<path d="M207.1,22.4c-0.9,1.6-2.8,1.4-2.9,1.5c-1.4,1.1-2.6,0.3-4.1-0.2c0.4-0.8,0.7-1.5,1.1-2.2c0.7,0.4,1.4,1,2.1,1.1
					c0.7,0.1,1.5-0.3,2.3-0.5c0.1-0.7,0.2-1.2,0.3-1.9c0.8,0.1,1.4,0.2,2,0.3c0,0,0.1-0.4-0.4,1.5C207.3,22.3,207.2,22.3,207.1,22.4
					z"/>
				<path d="M293.6,6.9C293.6,6.9,293.5,6.9,293.6,6.9c0.4,0.2-3.6,0.1-3.7,0.1c0-0.7,0.1-1.2,0.1-1.7c-1.9,0.3-1.1,2-2.2,2.7
					c-0.1,0,0.5,0.9,0.8,1.4c0.7,0,1.4,0,2.3,0.1c0.1-1.4,1.4-1.4,2.6-1.7L293.6,6.9z"/>
				<path d="M223,30.3c-0.2-2.7,2.4-0.4,3.2-2.5c-4.5-1.2-3.6-0.7-4.2-2.2c1-0.6,0.9,0.3,1.2,0.6c0.4-0.1,0.9-0.3,1.3-0.4
					c0.8,0.6,1.9,1.1,2.2,1.9c0.3,0.6-0.2,1.8-0.8,2.3C224.8,31,227.8,32.1,223,30.3z"/>
				<path d="M197,49.9c0.1-2.2-3.7-1-2.9-2.9c0.7-1.5,4-0.1,5.8,3.2l0,0C198.8,51.1,198,49.9,197,49.9L197,49.9z"/>
				<path d="M165.8,144c-1-0.5-1.8-1.4-3.3-0.2c0.2-0.8,0.2-1.3,0.4-1.5c1-0.7,1.9-1.4,2.2-2.5c1.2,0.7,2.2,1.2,3.4,1.9
					C166.2,142.6,166.9,142,165.8,144z"/>
				<path d="M162.9,129.7c0.2-0.7,0.4-1.2,0.6-1.9c1.2,0.4,2.3,0.9,3.3,1c1.1,0.1,2.1,0.1,3,1.1c-0.8,0.2-1.5,0.4-2.3,0.6
					c-0.1-1.2,0.2-0.9-1.6-1c-0.3,0.5-0.5,1-0.9,1.7C164.3,130.7,163.7,130.2,162.9,129.7z"/>
				<path d="M228.8,0.7c1.4-0.5,3-0.3,4.4-1.1c0.2,2.9-1.2,2.5-2.8,2.4c-0.3,1.7,0.1,1.3-2,1.8C228.6,2.7,228.7,1.8,228.8,0.7z"/>
				<path d="M96.2,22.5c1.5,0.4,3.6-0.7,4.6,1.4c-1,0.5-1.5,1.7-2.9,1.4C96.4,24.9,96.2,23.8,96.2,22.5z"/>
				<path d="M221.4,98.1c-0.7,0.9-1.7,0.5-2.5,0.3c-0.8-1,0-1.8,0.5-2.4c-0.6-1.8-0.6-1.4,0-1.7C222,96.4,221.6,95.5,221.4,98.1
					L221.4,98.1z"/>
				<path d="M189.1,69.5c-0.5-2-0.6-1.3,0.7-2.9c-0.4-0.3-0.1-0.4-1.8,0.3c-0.9-2.3,1.2-3.4,1.3-2.2c0.1,1.1-1.5,0.7,2,0.8
					C190.8,66.9,190.9,68.3,189.1,69.5z"/>
				<path d="M224.6,17.3c0.8-0.1,1.5-0.3,2.1-0.2c2.8,0.3,1.4,2.8-0.6,2.6C225,19.6,224.6,19,224.6,17.3z"/>
				<path d="M203.1,54.7c0,0-0.6-0.1-1.1-0.2c0.5-0.6,1-1.2,1.7-2c1.1,1.3,2.2,2.6,3.3,3.8c-0.6,1-1.2,0-1.9,0
					C203.9,55.4,203,55.7,203.1,54.7z"/>
				<path d="M240.5,120.9c-0.5,0.6-0.6,0.9-0.9,1.1c-0.7,0.5-1.8,0.6-1.8,1.7c0,0.1-0.6,0.3-0.8,0.3c-0.2-0.1-0.5-0.5-0.4-0.7
					c0.7-1.9,1.5-0.7-0.3-2.6C236.4,120.2,235.7,120.2,240.5,120.9z"/>
				<path d="M256.5,78.9c-5,0.3-3.6,0.6-6.5-1.3c2.4-1.2,0.7-0.6,4,0.3C256.8,78.6,256.6,77.7,256.5,78.9z"/>
				<path d="M264.1,65.2c1.6-2.9,0.6-1.9,3.1-1.7c0.6,0,1.2-0.1,2-0.1c-0.9,1.4-1.2,2.3-2.5,1.8C266,65,265.2,65.2,264.1,65.2z"/>
				<path d="M258.2,67.6c-0.8-1.7-1-1.2,0.4-2c1.1-0.6,1-0.6,1.9,0.4c0.4,0.4,1.1,0.7,1.7,1.1c-1.7,1.2-2.5-0.3-3.8-0.7
					C258.5,67.8,258.5,67.6,258.2,67.6z"/>
				<path d="M220.8,64.4c-0.4-0.8-2.2-0.3-1.8-1.6c1,0.2,1.9,0.3,2.8,0.5c2.1,0.4,1.3,4.2-2.1,1.5C220,64.7,220.4,64.6,220.8,64.4z"
					/>
				<path d="M74.3,75.3c1,0.4,1.7,0.7,1.3,1.6c-0.6,1.2-1.6,1.6-3.9,1.2C72.6,77.1,73.4,76.2,74.3,75.3z"/>
				<path d="M202.7,31.5c-0.2-2.1-1.3-2.5,1.2-4.2c0.5-0.4,1.1-0.3,1.4,0.1c0.2,0.3-0.1,1.2-0.2,1.2c-1.6,0.2-1.4,1.4-1.7,2.2
					C203.3,31,203.1,31.1,202.7,31.5z"/>
				<path d="M221.4,98.1c0.6,0,1.1-0.1,1.8-0.1c1.1,2.7,0.9,1.9,0.5,2.9c-1.2-0.7-0.8-0.5-1.2-0.9c-0.6,0.2-1.1,1.1-1.8,0.4
					C221.5,97.9,221.4,98.1,221.4,98.1z"/>
				<path d="M-3.7,119.2c0.2,1.4,0.3,2.7-1.4,3.3C-6.5,120.8-6,119.8-3.7,119.2z"/>
				<path d="M42.7,68.7c1.4-2.6,1.4-2.6,0.6-4.5c0.7,0.2,1.2,0.3,1.8,0.5c0.3-0.3,0.7-0.7,1.3-1.3c-0.1,1.1-0.1,1.9-1.1,2.4
					C44.4,66.4,44.8,68.8,42.7,68.7z"/>
				<path d="M214.3,5.3c-0.7-0.5-1.3-0.9-1.9-1.4c0.6-0.9,1.2-1.8,1.8-2.8c0.3,0.3,0.8,0.7,0.7,0.8C214.2,3,215.2,4,214.3,5.3z"/>
				<path d="M118.9,6.9c1-1.4,1.3-2.2,2.3-2.2c0.3,0,0.8,0.8,0.6,1.5c-0.2,0.6-0.5,1.2-0.9,2C120,7.2,120.6,7.4,118.9,6.9z"/>
				<path d="M89.7,59c0.9,0.9,2.6,0.9,3.1,2.4c-0.3,0.1-0.6,0.4-0.8,0.3C89.8,61.2,87.8,60.5,89.7,59z"/>
				<path d="M264.1,66.2c0.4,0.1,3,0.7,1.9,2.4c-0.4,0.6-1.5,0.7-1.7,0.2c-0.3-0.7-0.5-1.5-0.7-2.2C263.8,66.5,264,66.4,264.1,66.2z
					"/>
				<path d="M136,131.1c-0.2-0.6-0.4-1.2-0.6-1.7c1.2-0.8,1.5,0.2,2.2,0.5c0.5-1.1,1.5-0.8,2.6-0.8
					C139.2,130.6,137.5,130.6,136,131.1z"/>
				<path d="M242.2,10.9c0.2,0.6,0.3,1.2,0.5,2c-1.3,0-2.2,0-3.3,0C239.5,11.6,240.4,11,242.2,10.9z"/>
				<path d="M188.9,168.5c0.8-0.6,1.6-1.1,2.4-1.7c0.7,0.7,1.2,1.5,0.7,2.4C190.6,170.1,190,168.3,188.9,168.5z"/>
				<path d="M223.6,175.2c-0.8,1.1-1.7,1.2-3.7,0.4C221.2,174,221.2,173.8,223.6,175.2z"/>
				<path d="M147.9,141c-0.4,1-1.7,0.5-2.3,1.1c-1.2-1-0.4-1.8-0.2-2.9C148.3,141.1,148,140.9,147.9,141z"/>
				<path d="M290.4,45c-0.3,0.3-0.7,0.7-1,0.9c-1.3-0.3-2.6-0.6-4-1C285.9,43.5,289.4,44.8,290.4,45z"/>
				<path d="M169.7,150.2c0.9,0,1.6,0,2.5,0c0.2,0.7,0.4,1.4,0.7,2.3C171.2,152.2,170.1,151.7,169.7,150.2z"/>
				<path d="M163.8,174c1.1-0.4,2-0.7,3.2-1.1c0.1,0.5,0.3,0.9,0.3,1.2c-0.1,1.4-1.3,0.9-3,0.3C164.1,174.4,164.1,174.3,163.8,174z"
					/>
				<path d="M267.5,72.4c-0.1,0.6-0.2,1.1-0.3,1.7c-1.6,0-2.2-1.1-3.1-1.7C264.3,71.9,263.7,72,267.5,72.4z"/>
				<path d="M160.6,45.9c0.6,0.5,3.3,2.5,1.1,2.7c-0.6,0.1-1.3,0-1.8,0C160.1,47.7,160.3,47,160.6,45.9z"/>
				<path d="M186.7,106.6c-1.2-0.4-2.3-0.5-2.3-1.7c1-0.3,2-0.6,3.2,0.3C187.3,105.6,187,106.1,186.7,106.6z"/>
				<path d="M81.8,66c-1.1-1.8-1.2-2.5-0.5-3c0.6-0.4,1.2-0.1,2.3,1C82.7,64.3,81.6,64.5,81.8,66z"/>
				<path d="M281.5,114.7c0.5-1,0.9-2,1.4-3.1c0.4,0.2,0.8,0.3,0.8,0.3c-0.1,0.8,0,1.6-0.3,2.3C283.1,114.9,282.5,115.3,281.5,114.7
					z"/>
				<path d="M223,69.7c0.7,0,1.4-0.1,2.8-0.2c-1.6,0.9-0.4,1.9-0.9,2.9C222.7,71.3,223.2,71.9,223,69.7z"/>
				<path d="M212.6,76c-1.8,1.2-2.4-0.5-3.9-0.1C213.3,70.4,208.6,75.3,212.6,76z"/>
				<path d="M288.9,0c0.7-1.6,1.1-1.6,3.6,0C292.3,1.1,291.8,0.8,288.9,0z"/>
				<path d="M278.7,107.1c1.3-0.4,2.3-0.7,3.5-1c0.3,0.7,0.1,1.4-0.8,1.8C280.3,108.4,279.5,107.8,278.7,107.1z"/>
				<path d="M233.1,33.1c-1,0.2-2,0.3-3.1,0.5c-0.1-0.8-0.1-1.6-0.2-2.5C231.1,31.9,232.1,32.5,233.1,33.1z"/>
				<path d="M35,8.7c1.2,0,2.3-0.3,3.1,1c-0.6,0.3-1.2,0.8-1.7,0.7C35.5,10.3,35.4,9.5,35,8.7z"/>
				<path d="M156.7,131.2c-1.9-1.4-2.1-2.7-0.4-3.9C156.5,128.5,156.6,129.7,156.7,131.2z"/>
				<path d="M49.9,139.8c3,0.7,2.7,2.5,2,2.7C51,142.8,50.8,141.8,49.9,139.8z"/>
				<path d="M142.7,29.4c0.3-1.2,0.7-2.3-0.1-3.4c-0.1-0.2,0.4-0.6,0.6-0.9c0.2,0.3,0.7,0.5,0.7,0.8c0.1,0.8-0.1,1.6-0.1,2.4
					C143.9,29,143.6,29.3,142.7,29.4z"/>
				<path d="M151.6,139.9c0.1,0.7,0.1,1.4,0.1,2c-1.1-1-2.8-0.1-3.9-0.9C147.9,141.1,147.5,141.1,151.6,139.9z"/>
				<path d="M104.7,76.5c-0.7,1.3-1.2,2.2-1.7,3.2C101.6,78.1,102,77.1,104.7,76.5z"/>
				<path d="M218,90.9c0.4-0.1,0.9-0.2,1.3-0.3c0.5,2,0.5,2.1-0.9,3.2C218.4,91.7,218.4,92.5,218,90.9z"/>
				<path d="M269.5,81.1c0.3,0.3,0.5,0.8,0.8,0.8c1.7,0,1.6,0.9,1.5,1.9C269.9,83.6,269.7,83.4,269.5,81.1z"/>
				<path d="M223.7,7.9c0.6-0.9,0.3-2,1.6-2.4C226,7.9,225.7,8.3,223.7,7.9z"/>
				<path d="M252.2,45.8c-0.2-1.3,0.1-1.9,1.5-1.9c0.4,0.7,0.9,1.5,1.3,2.2C253.7,46.9,253.5,44.7,252.2,45.8z"/>
				<path d="M137.3,122.4c1.9,0.1,1.1,1.9,0.6,3.6C136.4,125.9,136.9,125.4,137.3,122.4z"/>
				<path d="M254.3,91.2c-1.2,0.4-2.4,0.9-3.8,0c0.9-0.4,1.7-0.7,2.6-1.1C254.4,91.3,254.3,91.2,254.3,91.2z"/>
				<path d="M197.4,106.7c-0.6,0.9-1.2,1.6-1.7,2.4c-0.8-0.8-0.8-1.3-0.1-2.3C196,106.3,196,106.3,197.4,106.7z"/>
				<path d="M207.1,22.4c0.7-0.4,1.2-0.7,0.8-1.8c0,0-0.1,0.1,0.8-0.4c0.4,0.9,0.8,1.7,1.3,2.7C208.8,22.7,207.8,23.1,207.1,22.4z"
					/>
				<path d="M271.8,63.7c0.3,0.4,0.5,0.8,0.9,1.4c-0.7,0.3-1.4,0.6-2.2,0.9C270,64.5,270,64.5,271.8,63.7z"/>
				<path d="M286.2,137.5c0.5,1.9,0.1,1.7-2.8,1.4C283.2,138.4,282.8,138.7,286.2,137.5z"/>
				<path d="M203.1,63.4c0.3,0.7,0.5,1.2,0.7,1.6c-1.3,1.3-1.3,1.3-2.4,0.6C201.8,64.9,202.4,64.3,203.1,63.4z"/>
				<path d="M197.2,111.7c-0.5-0.6-0.8-1-1.1-1.5c0.9-0.7,1.6-0.9,2.6-0.1C198.2,110.6,197.8,111,197.2,111.7z"/>
				<path d="M231.5,6.2c-1.4,1.2-2.5,0.7-3.7,0.2C228.9,6.1,230,5.4,231.5,6.2z"/>
				<path d="M288.1,1.2c0.6-0.2,1.1-0.3,1.8-0.5c0.2,0.7,0.4,1.2,0.7,2C287.2,1.7,287.6,2,288.1,1.2z"/>
				<path d="M75.5,155.3c0.3,2.1,0.2,2.2-2.3,2.1c0.4-0.4,1-0.7,1-1C74.3,155.7,74.8,155.5,75.5,155.3z"/>
				<path d="M57.3,83c0.3-1.8,3.3-1.4,2.2,0.6C58.7,83.3,58,83.2,57.3,83z"/>
				<path d="M191.6,63.6c1.7,0.5,1.7,0.5,1.6,1.9C191.7,65.1,191.7,65.1,191.6,63.6z"/>
				<path d="M154.9,132.5c1.3,0.9,3.2,0,3.7,2c-0.9-0.5-1.6-1-2.6-0.5C155.5,134.2,155,133.6,154.9,132.5z"/>
				<path d="M223.8,94.9c1,0.1,2.2-0.7,3.2,0.7C225.6,95.7,224.5,96.1,223.8,94.9z"/>
				<path d="M245.9,42.4c-0.1,0.8-0.2,1.1-0.3,1.6c-2-0.7-1.5-0.4-1.8-1.3C244.4,42.6,245,42.5,245.9,42.4z"/>
				<path d="M61.9,76.6c-0.2-1.9,0.3-2.3,2.5-2.2C64.3,74.3,64.6,74.1,61.9,76.6z"/>
				<path d="M156.2,162.3c1.6-0.5,2.1,0.2,2.1,2C157.8,164.5,158.2,164.8,156.2,162.3z"/>
				<path d="M286.1,8.6c-1-2.1-1.1-1.6,0.2-2.5C287.3,7,287.3,7.7,286.1,8.6z"/>
				<path d="M265.2,89.6c0.4-0.8,0.6-1.4,1-2.1C267.4,88.8,267.2,89.2,265.2,89.6z"/>
				<path d="M205.4,62.2c-0.7,0.5,0.1,0.5-2.9,0.3c0-0.1-0.1-0.1-0.1-0.2c0.5-1.1,1-1.4,2.1-1.3c0.1,0,0.1-0.2-0.5,0.9
					C205.1,61.7,204.7,61.6,205.4,62.2z"/>
				<path d="M193.3,41.5c-0.5,0.2-1,0.3-1.5,0.4c-0.6-1-0.6-1,0.1-2C192.4,40.4,192.8,40.9,193.3,41.5z"/>
				<path d="M138.9,144.7c-0.4-1.5,1.2-1.2,1.9-1.7C140.7,144,140.5,144.8,138.9,144.7z"/>
				<path d="M284.9,5.5C284,5.2,283.6,5,283,4.8c0.5-1,0.1-0.8,1.5-1.1C284.6,4.2,284.7,4.7,284.9,5.5z"/>
				<path d="M225.6,64c0.7,0.2,1.2,0.4,1.8,0.5c-0.4,1-1.2,0.9-2.2,1C225.4,65,225.5,64.6,225.6,64z"/>
				<path d="M-14.7,158.4c0.4-0.5,0.8-0.9,1.2-1.3c0.4,0.3,0.7,0.5,1.1,0.8C-12.9,159-13.6,158.9-14.7,158.4z"/>
				<path d="M216.9,9c1,0.5,1.5,1.1,1.1,2C216.5,10.8,216.5,10.8,216.9,9z"/>
				<path d="M269.9,56.5c0-0.7,0-1.3,0-1.9c1,0,1.4,0.5,1.4,1.2C271.3,56.1,271.2,56.1,269.9,56.5z"/>
				<path d="M259.6,95.5c-0.6-0.4-1.1-0.7-1.6-1C259,93.3,261.3,94.5,259.6,95.5z"/>
				<path d="M143.5,127.2c0.3-0.4,0.6-0.9,1-1.2c0.2-0.1,0.8-0.1,1,0c0.2,0.2,0.2,0.8,0,0.9c-0.5,0.3-1.2,0.4-1.8,0.6
					C143.7,127.4,143.6,127.3,143.5,127.2z"/>
				<path d="M216.6,75.8c-1.1,0-1.7,0-2.6,0c0.4-0.6,0.6-1,1-1.5C215.5,74.8,215.9,75.2,216.6,75.8z"/>
				<path d="M216.2,22.9c-0.1,0.8-0.2,1.4-0.2,2c-0.8-0.2-0.4,0.2-1.7-1.4C214.9,23.4,215.4,23.2,216.2,22.9z"/>
				<path d="M214.3,19.1c0.1-0.5,0.2-0.9,0.3-1.4c1.5-0.2,1.2,1.2,1.9,1.6C215.8,19.3,215.2,19.2,214.3,19.1z"/>
				<path d="M267.9,87.4c-1-0.9-0.1-1.3,0.4-1.9c0.4,0.4,0.7,0.6,1,0.9C268.9,86.8,268.4,87.1,267.9,87.4z"/>
				<path d="M279,105c-0.9,0.5-1.5,0.9-2.4,0.3c0.1-0.7,0.6-1.1,1.4-1C278.3,104.3,278.5,104.7,279,105z"/>
				<path d="M276.7,97.3c2.4,0.1,2.1,1.5,1.6,1.7C277.5,99.2,277.3,98.4,276.7,97.3L276.7,97.3z"/>
				<path d="M197.7,18.4c-0.5-0.9-2.5-0.5-2.2-2C195.9,17.4,198,16.9,197.7,18.4z"/>
				<path d="M229.9,36.6c0.7,0.9,1.6,1.3,0.6,2.4C229.7,38.4,229.7,37.7,229.9,36.6z"/>
				<path d="M216.4,59.1c0.4,0.4,0.7,0.8,1.2,1.3c-0.7,0.3-1.1,0.5-1.8,0.7C216,59,215.8,59.3,216.4,59.1z"/>
				<path d="M153,47.9c-0.8,0.4-1.6,0.8-2.6,1.3C150.5,48.1,150.9,47.8,153,47.9z"/>
				<path d="M232.3,90.9c-0.6-0.5-0.9-0.7-1.3-1c0.3-0.4,0.5-0.7,0.8-1.1C232.7,89.4,232.3,90,232.3,90.9z"/>
				<path d="M221.6,76.2c-0.4-0.6-0.8-1.2-1.2-1.8C221.8,74.3,222.1,74.6,221.6,76.2z"/>
				<path d="M227.6,32.2c0.2-0.5,0.4-1,0.8-1.7c0.6,0.6,0.9,1.1,1.5,1.7C228.9,32.2,228.3,32.2,227.6,32.2z"/>
				<path d="M262.4,30.8c-1.4-0.3-1.6-0.8-1.2-1.8C262.3,29.3,262.7,29.7,262.4,30.8z"/>
				<path d="M89.8,43.5c-0.1-1-0.2-1.6,0.9-2C91.1,42.4,91,43,89.8,43.5z"/>
				<path d="M195.8,44.5c-0.7,0.2-1.3,0.4-1.8,0.6c-0.6-0.5-0.6-0.9,0-1.2C194.6,43.5,195.2,43.7,195.8,44.5z"/>
				<path d="M266.4,76.7c-0.9,1-2.1,0.6-3.2,1C263.7,76.4,263.2,76.6,266.4,76.7z"/>
				<path d="M86.5,64.8c-1.2,0.3-1.2,0.3-1.9-0.9C85.9,63.7,85.9,63.7,86.5,64.8z"/>
				<path d="M226.8,172.7c-1.6-0.5-1.5,0.9-2.7,1.6c0.2-1,0.3-1.5,0.4-2.1C227,172.3,226.6,172.1,226.8,172.7z"/>
				<path d="M187.1,66.3c-0.8-0.3-1.5-0.5-2.3-0.8C185.3,64.5,187.4,64.7,187.1,66.3z"/>
				<path d="M-15.9,135.1c0.1-0.2,0.2-0.3,0.3-0.3c0.7-0.2,1.4-0.3,1.8,0.3C-13.4,135.8-15.1,136.7-15.9,135.1z"/>
				<path d="M190.6,164.1c-0.9,1-0.2,0.7-2.4,1.6c-0.2-0.2-0.3-0.3-0.6-0.7C190.9,164,190.7,164.1,190.6,164.1z"/>
				<path d="M55.2,153.1c0.3,1.6-0.2,2-1.8,2C54.7,153.8,54.2,154.4,55.2,153.1z"/>
				<path d="M219.7,7.3c0.7,0.5,2.3,0,1.8,1.6C220.8,8.4,219.6,8.5,219.7,7.3z"/>
				<path d="M195.1,27.5c0.5,0.6,0.8,1,1.2,1.4c-0.4,0.5-0.9,0.6-1.3,0.2C194.4,28.7,194.5,28.2,195.1,27.5z"/>
				<path d="M184.1,169.6c-0.5-1.6-0.4-1.7,1.7-1.9C185.2,168.4,184.7,169,184.1,169.6z"/>
				<path d="M78.3,71.6c1.7-0.5,1.7-0.5,1.6,0.9C79.3,72.2,78.8,71.9,78.3,71.6z"/>
				<path d="M203.3,57.9c-1.3,0-1.6-0.8-2-1.8C203.8,56.6,203,58,203.3,57.9z"/>
				<path d="M219.2,89.1c0.9-0.2,1.6-0.4,2.5-0.6c-0.2,0.4-0.2,0.8-0.4,0.9C220.6,89.7,219.9,89.8,219.2,89.1z"/>
				<path d="M184.8,171.7c-0.8,0-1.4,0-2.2,0c0.6-0.7,1.1-1.2,2-0.8C184.7,171,184.7,171.4,184.8,171.7z"/>
				<path d="M174.6,148.1c0.8-1.2,0.8-1.2,2-0.7C175.9,147.8,175.7,148.7,174.6,148.1z"/>
				<path d="M175.9,133.4c-0.4-0.2-0.7-0.4-1.1-0.5c0-0.7,0.4-1,1-0.8C176.7,132.4,176.5,132.9,175.9,133.4z"/>
				<path d="M201.1,67.8c-0.7-0.5-1.5-0.8-1.6-1.2c-0.2-0.5,0.4-0.8,1.1-0.7C200.7,66.4,200.9,66.9,201.1,67.8z"/>
				<path d="M204.1,59.3c-0.6-0.1-1.2-0.2-2.3-0.3c0.8-0.6,1.1-0.8,1.5-1.1c0,0,0,0,0,0C204.1,59.5,204,59.4,204.1,59.3z"/>
				<path d="M241.5,83.3c-0.3,0.6-0.5,0.9-0.7,1.3c-0.6-0.2-0.4,0.1-0.6-1.4C240.6,83.3,240.9,83.3,241.5,83.3z"/>
				<path d="M227.4,73.4c0.7,0.5,1.3,1.1,0.6,2.1C226.7,73.4,226.7,73.7,227.4,73.4z"/>
				<path d="M39,121.7c-1.7-0.8-0.1-1.9,0.4-1.5C40,120.8,39.5,121.2,39,121.7z"/>
				<path d="M278.4,99.3c-1,1.5-1,1.5-2.7,1.1C276.7,100,277.4,99.7,278.4,99.3z"/>
				<path d="M272.1,81.1c-1.6-0.7-1.7-0.7-0.8-2C271.6,79.7,271.8,80.3,272.1,81.1z"/>
				<path d="M194.6,65.7c1.6-0.8,1.6-0.8,2.4,0.7C196.2,66.2,195.5,66,194.6,65.7z"/>
				<path d="M217.7,28.6c1.2-1,1.2-1,2.1,0.1C219.1,28.7,218.5,28.7,217.7,28.6z"/>
				<path d="M197,104c1.4,0.3,1.4,0.3,0.5,1.8C197.2,105.1,197.1,104.6,197,104z"/>
				<path d="M167.6,46.4c-0.8-0.6-1-1-0.2-1.6C168.1,45.2,168.4,45.6,167.6,46.4z"/>
				<path d="M81.8,68.7c0.3-0.4,0.6-0.7,1-1.2c0.3,0.3,0.5,0.4,0.6,0.6C83.5,69,82.7,68.9,81.8,68.7z"/>
				<path d="M292.9,46.1c-1.1-0.7-0.4-1.2-0.3-2C293.7,44.8,293.5,45.4,292.9,46.1z"/>
				<path d="M81.2,67.8c-0.9,1.4-0.6,1.3-1.5,0.8C80.8,67.3,80.5,67.4,81.2,67.8z"/>
				<path d="M171.2,106.6c-0.9-1.4-0.2-1.9,0.6-2.3C172.3,104.6,172.3,104.2,171.2,106.6z"/>
				<path d="M188.1,127.2c-0.5,0.9-0.9,1.4-2,1C186.2,127.2,186.9,127.1,188.1,127.2z"/>
				<path d="M264.2,92.1c-0.6,0.2-1.1,0.3-2,0.5C262.6,91.5,263,91,264.2,92.1z"/>
				<path d="M148.1,113.9c-0.6-0.9,0.6-1.2,0.8-2C150.3,113.7,147.8,113.7,148.1,113.9z"/>
				<path d="M199.3,12.6c-0.9-0.9-1.3-1.5-0.4-2.3C199.1,11,199.2,11.6,199.3,12.6z"/>
				<path d="M224.4,85.6c0.4,0.6,0.8,1.2,1.2,1.9C224.3,87.2,224.3,87.2,224.4,85.6z"/>
				<path d="M235.4,15.1c-1.2,0.4-1.6-0.1-2-0.9C234.4,14,234.9,14.4,235.4,15.1z"/>
				<path d="M72.1,16.2c0.8-0.4,1.3-0.1,1.7,1C71.6,16.6,71.9,16.8,72.1,16.2z"/>
				<path d="M193.8,167.1c-1.2-1.4-1.2-1.4-0.1-2C194.3,165.7,193.9,166.2,193.8,167.1z"/>
				<path d="M231.5,69.9c0.2,1,0.2,1.6-1,1.9C230.4,71,230.3,70.4,231.5,69.9z"/>
				<path d="M118.9,2.6c0-1.1-0.1-1.8,0.9-2C120.4,1.1,120.5,0.8,118.9,2.6z"/>
				<path d="M187.5,169.7c-0.4,1.1-0.9,1-1.7,0.4C186.3,170.1,186.8,169.9,187.5,169.7z"/>
				<path d="M228,98.9c0.7-0.3,1.2-0.5,1.6-0.7c0.1,0.1,0.3,0.2,0.3,0.2C229.7,99.3,229.3,99.7,228,98.9z"/>
				<path d="M87.9,171c0.6,0.6,1,1,1.6,1.6C88,172.6,88,172.6,87.9,171z"/>
				<path d="M282.3,4.4c-0.8-0.6-1.1-1.1-0.5-1.9C282.7,3,282.7,3.6,282.3,4.4z"/>
				<path d="M163.9,139.7c-0.6-0.6-0.9-0.8-0.9-1.1c0-0.1,0.5-0.5,0.6-0.5c0.3,0.1,0.7,0.3,0.8,0.6
					C164.4,138.9,164.1,139.2,163.9,139.7z"/>
				<path d="M228.5,89.6c-1.2-1.2-1.2-1.2,0.4-1.7C228.8,88.5,228.6,89,228.5,89.6z"/>
				<path d="M211.6,88.4c0.8,1.1,1,0.8-0.1,1.6C210.8,89.2,210.7,89.6,211.6,88.4z"/>
				<path d="M76.1,145.9c0.3,0.4,0.5,0.7,0.8,1.1c-0.4,0.2,0,0.3-2-0.5C75.3,146.2,75.7,146.1,76.1,145.9z"/>
				<path d="M69.3,76.3c0.1,0.7,0.2,1.1,0.4,1.9c-0.6-0.4-1-0.6-1.3-0.9C67.9,76.7,68.6,76.7,69.3,76.3z"/>
				<path d="M292.6,84.1c-1.3-0.6-1.7-1.1-1.2-1.8C292.1,82.1,291.8,81.8,292.6,84.1z"/>
				<path d="M78.2,47.6c-1.8,0.4-1.8,0.4-1.7-1C77.1,47,77.5,47.2,78.2,47.6z"/>
				<path d="M64.4,74.4c0.9-0.5,0.9-0.8,1.9-0.4c0.1,0,0.1,0.4,0,0.4c-0.3,0.1-0.7,0.3-1.1,0.3C64.9,74.7,64.3,74.3,64.4,74.4z"/>
				<path d="M227.5,54.8c-0.4,1.2-1.2,0.9-1.9,0.9C225.4,55.1,225,55.3,227.5,54.8z"/>
				<path d="M81.8,1.1c0.7,0.8,0.8,0.5-0.4,1.3C80.9,1.7,80.7,2.1,81.8,1.1z"/>
				<path d="M258.8,59.2c-0.8,0.5-1.2,0.8-2,1.3C257,59.5,257.2,59,258.8,59.2z"/>
				<path d="M193.5,169c1.5-0.3,1.5,0.3,1.5,1.4C194.4,169.8,194,169.5,193.5,169z"/>
				<path d="M182.8,165.3c-0.2,0.6-0.2,1.3-1.6,0.7C182.7,164.8,182.3,164.9,182.8,165.3z"/>
				<path d="M259.7,76.1c0.8,0.7,0.6,0.3,0.9,1.6C259.4,77.6,259.4,77.1,259.7,76.1z"/>
				<path d="M211,63.7c0.2,0.6,0.3,1,0.5,1.3C210.2,65,210.2,65,211,63.7z"/>
				<path d="M237.6,10.7c-1.2,0.6-1.6,0.2-1.8-0.7C236.3,10.2,236.8,10.4,237.6,10.7z"/>
				<path d="M225.8,58.3c-0.9,0.6-1.7,0.7-2.1-0.4C224.5,58.1,225.1,58.2,225.8,58.3z"/>
				<path d="M74.4,72.6c0.5,0.4,0.8,0.6,1.3,1c-0.7,0.3-1.1,0.4-1.9,0.7C74.1,73.7,74.2,73.2,74.4,72.6z"/>
				<path d="M46.2,141.3c0.8-1.1,1.4-0.6,2,0C47.5,141.3,47,141.3,46.2,141.3z"/>
				<path d="M197,49.9c0,1.9,0.3,1.8-0.9,0.7C197.1,49.8,197,49.9,197,49.9z"/>
				<path d="M199.9,50.2c1,0.3,1,0.8,0.6,1.6C199.4,51.3,200.2,50,199.9,50.2z"/>
				<path d="M174.5,58.5c0.5,1.1-0.4,1.2-0.7,1.7C173.2,59.8,173.1,60.1,174.5,58.5z"/>
				<path d="M254.3,91.2c1.9-0.9,1.6-0.9,1.8-0.5C255.6,91.1,255.3,91.9,254.3,91.2C254.3,91.2,254.3,91.2,254.3,91.2z"/>
				<path d="M232.7,156.2c0.4-0.7,0.6-1,0.8-1.4C234.1,155.5,234.1,155.5,232.7,156.2z"/>
				<path d="M234.2,58.6c-0.5-0.5-0.8-0.8-1.1-1.1C233.8,57.5,234.7,57.3,234.2,58.6z"/>
				<path d="M167.5,171.3c-0.3-1.1-0.5-0.9,0.6-1C168,171.5,168.1,171.3,167.5,171.3z"/>
				<path d="M58.8,80.3c-1.5,0.3-1.6-0.9-1.1-1C58.5,79.3,58.8,79.7,58.8,80.3z"/>
				<path d="M220.3,25.8c0.6,0.7,0.8,1,1.2,1.4c-0.6,0-1-0.1-1.6-0.1C220,26.8,220.1,26.5,220.3,25.8z"/>
				<path d="M279.4,47.2c-0.1-0.3-0.3-0.6-0.4-1c0,0,0.5-0.2,0.5-0.2c0.2,0.3,0.4,0.6,0.5,0.8C279.9,47,279.7,47.1,279.4,47.2z"/>
				<path d="M155,47.4c-0.2-0.6-0.3-1-0.5-1.5c0.6,0.2,1,0.3,1.6,0.4C155.7,46.7,155.4,46.9,155,47.4z"/>
				<path d="M205.6,67.8c1.2-0.1,1.4,0.3,1.3,0.9C206.1,68.6,206.4,68.9,205.6,67.8z"/>
				<path d="M271.9,88.1c-0.3-0.3-0.7-0.5-0.7-0.6c0-0.2,0.3-0.5,0.6-0.6c0.2,0,0.5,0.2,0.8,0.3C272.4,87.5,272.2,87.8,271.9,88.1z"
					/>
				<path d="M263.7,75.3c-0.4-0.3-0.8-0.5-1.5-1.1c1,0,1.5,0.1,2.2,0.1C263.5,75.4,263.6,75.2,263.7,75.3z"/>
				<path d="M224.1,2.5c2,0.2,1.7,0,1.7,0.5C223.8,2.9,224.1,3.1,224.1,2.5z"/>
				<path d="M288.1,1.2c-0.5,0.8-0.1,0.7-1.7,0.3C287,0.8,287.6,0.9,288.1,1.2z"/>
				<path d="M232.2,15.3c0.7,0.9,0.5,1.3-0.1,1.4c-0.2,0-0.4-0.2-0.6-0.2C231.7,16.1,231.9,15.8,232.2,15.3z"/>
				<path d="M83,84.7c-0.9,0.5-0.6,0.5-1.3,0.1C82.5,84.1,82.2,84.2,83,84.7z"/>
				<path d="M194.9,86.7c-0.3-0.3-0.6-0.4-0.6-0.6c0-0.2,0.2-0.5,0.4-0.5c0.1-0.1,0.6,0.1,0.6,0.2C195.3,86.1,195.1,86.3,194.9,86.7
					z"/>
				<path d="M275.9,98.5c-0.2-0.1-0.5-0.3-0.5-0.4c-0.1-0.7,0.7-0.5,1.1-0.8C277,97,276.3,97.9,275.9,98.5z"/>
				<path d="M184.3,5.4c-1.2,0.6-0.8,0.6-1.6,0.2C182.9,5.2,182.5,5.2,184.3,5.4z"/>
				<path d="M180.9,111.9c-1.2,0.4-0.7,0.6-1.8-0.2C179.8,111.2,179.3,111.1,180.9,111.9z"/>
				<path d="M135.6,113c-0.4-0.2-0.7-0.4-1.2-0.7C135.4,111.9,135.7,112.1,135.6,113z"/>
				<path d="M60.1,114.3c-0.3,0.5-0.4,0.9-0.6,1.3c-0.2-0.1-0.4-0.2-0.5-0.3C58.6,114.7,59,114.4,60.1,114.3z"/>
				<path d="M143.2,116.5c0.9-1,0.9-1,1.8-0.3C144.1,117,142.8,116.2,143.2,116.5z"/>
				<path d="M129,132.9c-0.5,0.3-0.7,0.9-1.3,0c0-0.1,0.3-0.4,0.4-0.4C128.4,132.5,128.7,132.7,129,132.9z"/>
				<path d="M174.4,5.2c0.6,0.1,0.6-0.1,0.4,1C174,6.1,174.1,6.3,174.4,5.2z"/>
				<path d="M154.1,139.9c-0.5,1-1,0.9-1.6,0.8C152.3,140,152,140.2,154.1,139.9z"/>
				<path d="M79.3,146.3c-1.1,0.3-0.8,0.5-1.5-0.4C78.7,145.6,78.3,145.5,79.3,146.3z"/>
				<path d="M182.2,146.4c0.9-0.5,1.3-0.4,1.6,0.6C183.1,146.8,182.7,146.7,182.2,146.4z"/>
				<path d="M72.9,149c-0.7,0-1.2,0-1.9,0C71.7,148.1,72.2,148.5,72.9,149z"/>
				<path d="M181.6,169.8c0,1.2,0.2,1-0.7,1C180.9,169.6,180.7,169.8,181.6,169.8z"/>
				<path d="M250.2,169.7c-0.7,0.6-0.4,0.6-1.3,0.1C249.5,169,249.2,169.1,250.2,169.7z"/>
				<path d="M168.7,172.3c0.6,0.3,1.1,0.7,1.6,1C169,173.5,169,173.5,168.7,172.3z"/>
				<path d="M22.8,176c0.6,0.1,1.3,0,1.8,1C22.4,176.3,22.7,176.5,22.8,176z"/>
				<path d="M244.5,12c-1.2-0.2-1-0.1-0.8-0.6C244.9,11.5,244.7,11.4,244.5,12z"/>
				<path d="M221.1,23.7c-1.3-0.2-1.3-0.6-0.7-1.4C220.6,22.8,220.8,23.1,221.1,23.7z"/>
				<path d="M195,41.2c0.9,0.8,0.4,1-0.6,1.3C194.4,41.4,194.3,41.7,195,41.2z"/>
				<path d="M159.3,43.2c-1.4,0.4-1.6,0-1.6-1C158.2,42.6,158.6,42.8,159.3,43.2z"/>
				<path d="M195.5,53.1c-0.4,0.2-0.8,0.5-1.5,0.9C194.1,52.9,194.7,52.8,195.5,53.1z"/>
				<path d="M161.9,141.4c0.3-0.3,0.7-0.6,1.1-1C163,141.3,163,141.3,161.9,141.4z"/>
				<path d="M89.7,65.9c-1,0.1-1.3-0.1-1.4-0.8C89.2,64.9,89.5,65.3,89.7,65.9z"/>
				<path d="M203.7,67.1c-1,0.4-1,0.4-1.3-0.5C203,66.8,203.4,67,203.7,67.1z"/>
				<path d="M161.6,76.4c-0.4,0.1-0.7,0.1-1.1,0.1c0,0-0.2-0.4-0.1-0.4c0.3-0.1,0.7-0.2,1.1-0.3C161.4,76,161.5,76.2,161.6,76.4z"/>
				<path d="M263.6,75.2c0.2,2.2,0.1,1.8-1.5,0C263.9,75.3,263.7,75.3,263.6,75.2z"/>
				<path d="M252.4,80c0,0.5,0,1,0,1.7C251.4,81,252.2,80.5,252.4,80z"/>
				<path d="M244.3,167.3c-0.5,0-1,0-1.9,0C243.4,166.6,243.9,167.1,244.3,167.3z"/>
				<path d="M176.9,65.5c0.5-0.7,0.1-0.6,1.6-0.3C178.4,65.7,178.7,65.6,176.9,65.5z"/>
				<path d="M183,49.7c-1.3-0.1-1.2,0.1-0.1-1C183.2,48.8,183.2,48.6,183,49.7L183,49.7z"/>
				<path d="M144.1,19.8c-0.3,0.1-0.6,0.3-0.9,0.3c-0.1,0-0.4-0.3-0.4-0.4c0-0.1,0.2-0.4,0.4-0.4c0.2,0,0.4,0.1,0.6,0.2
					C143.9,19.6,144,19.7,144.1,19.8z"/>
				<path d="M96.5,52.1c-0.3-1-0.3-0.8,0.3-1C97.1,52.2,97.2,52,96.5,52.1z"/>
				<path d="M241.3,161.3c-1.2,0.4-0.8,0.5-1.7-0.2C240.3,160.5,239.9,160.6,241.3,161.3z"/>
				<path d="M96.2,18.2c0.4,0,0.7,0.1,1.1,0.1c0,0.1,0,0.3,0,0.3C95.9,18.7,96.1,18.7,96.2,18.2z"/>
				<path d="M201.2,12.4c-0.1,0.6,0.2,0.5-1.2,0.5C200.1,12.1,199.9,12.3,201.2,12.4z"/>
				<path d="M205.4,62.2c-0.7-0.6-0.5-0.3-0.9-1.2c0,0-0.2,0,1.3,0.2C205.7,61.6,205.6,61.9,205.4,62.2z"/>
				<path d="M188,52.9c1.5-0.2,1.2-0.3,1.3,0.2C187.9,53.4,188.1,53.5,188,52.9z"/>
				<path d="M206.4,66.3c1.1,1,0.9,0.8,0.7,1.1C205.7,67.1,205.9,67.4,206.4,66.3z"/>
				<path d="M201.1,44.5c0.6-1,0.3-0.9,1.1-0.6C201.4,44.9,201.6,44.8,201.1,44.5z"/>
				<path d="M23.3,99.4c0.2,0.3,0.5,0.5,0.4,0.6c-0.8,0.7-0.8,0.4-1.2,0.1C22.8,99.9,23,99.7,23.3,99.4z"/>
				<path d="M63.5,156.9c-0.3,0.2-0.6,0.4-0.7,0.3c-0.2-0.1-0.5-0.3-0.5-0.6c0-0.1,0.3-0.3,0.5-0.4C63,156.5,63.2,156.6,63.5,156.9z
					"/>
				<path d="M197.3,68.4c-0.2,1.2,0,0.8-0.8,1.3C196,68.9,196.4,68.6,197.3,68.4z"/>
				<path d="M180.2,141.8c0.7,0.7,0.8,0.4,0,1.1C179.7,142.2,179.7,142.5,180.2,141.8z"/>
				<path d="M156.1,140.6c1.4-0.6,1.1-0.6,1.4,0C156.1,141.2,156.4,141.2,156.1,140.6z"/>
				<path d="M181.9,107.9c-0.3-0.1-0.8-0.2-1-0.4c-0.2-0.3,0.3-0.5,0.8-0.3C182.3,107.4,182.3,107.3,181.9,107.9z"/>
				<path d="M218.3,32.5c-0.8,0.9-0.8,0.9-1.9,0.2C218.5,32.5,218.3,32.5,218.3,32.5z"/>
				<path d="M195.6,32.3c-0.6,0.5-1,0.8-1.7,1.4C194,32.6,194.4,32.3,195.6,32.3z"/>
				<path d="M219.4,32.5c-0.3,0.3-0.1,0.3-1.1,0C218.7,31.7,218,31.3,219.4,32.5z"/>
				<path d="M203.1,32c0.3,0.5,0.5,0.3-0.6,1C202.1,32.5,202,32.7,203.1,32z"/>
				<path d="M293.9,136.3c-0.6,0.3-0.8,0.6-1.2-0.3c0,0,0.4-0.4,0.5-0.3C293.4,135.7,293.6,136,293.9,136.3z"/>
				<path d="M196,31.8c0.3-0.9,0.1-0.8,0.9-0.5C196.3,32.1,196.5,32,196,31.8z"/>
				<path d="M209.8,46.6c0.5,1.1,0.4,0.6,0.2,1.8C208.9,46.8,208.9,47.2,209.8,46.6z"/>
				<path d="M30.6,118.7c-0.9,0.5-0.5,0.6-1.4,0C30,118.2,29.7,118.2,30.6,118.7z"/>
				<path d="M59.4,77.8c0,0.6,0.2,0.5-1,0.5C58.4,77.8,58.2,77.9,59.4,77.8z"/>
				<path d="M51.2,136.9c-1.2,0.8-0.8,0.7-1.5,0.2C50.5,136.5,50.1,136.6,51.2,136.9z"/>
				<path d="M206,64.9c0.3,0.2,0.6,0.3,0.6,0.5c0,0.1-0.2,0.4-0.4,0.4c-0.2,0-0.5-0.1-0.6-0.3C205.7,65.4,205.9,65.2,206,64.9z"/>
				<path d="M148.1,55.9c-1,0.4-0.7,0.5-1.3-0.1C147.5,55.3,147.2,55.3,148.1,55.9z"/>
				<path d="M156.4,120.1c0.9-1.3,0.7-1.2,1.2-0.9C156.5,120.5,156.8,120.3,156.4,120.1z"/>
				<path d="M137.5,173.3c-0.6-0.7-0.8-1.1-0.2-1.5C138,172,137.9,171.7,137.5,173.3z"/>
				<path d="M87.5,80c-0.4,0.3-0.6,0.6-0.9,0.9c-0.2-0.2-0.3-0.2-0.3-0.3C86.3,79.9,86.6,79.6,87.5,80z"/>
				<path d="M226.9,5.7c-0.8-0.8-0.7-0.6-0.6-0.9c0.6,0.2,0.5,0,0.8,0.7C227.1,5.6,227,5.7,226.9,5.7z"/>
				<path d="M58.6,153.3c0.4,0,0.7-0.1,1.1-0.1c0,0,0.1,0.3,0.1,0.3c-0.3,0.2-0.6,0.3-1,0.4C58.7,153.7,58.7,153.5,58.6,153.3z"/>
				<path d="M143.1,141.2c0.9,0.9,0.8,0.7,0.4,1C142.6,141.2,142.7,141.4,143.1,141.2z"/>
				<path d="M274.3,65.9c-1.3,0-1.1,0.1-1.1-0.2C274.4,65.4,274.2,65.3,274.3,65.9z"/>
				<path d="M84.9,163.7c0.3-0.2,0.6-0.3,0.9-0.4c0,0,0.2,0.2,0.2,0.2C85.1,164.3,85.3,164.2,84.9,163.7z"/>
				<path d="M166.5,171.5c0.8,0.5,0.8,0.3,0.2,1C165.9,171.9,166.1,172.2,166.5,171.5z"/>
				<path d="M162.3,172.4c0.2-0.2,0.4-0.4,0.7-0.6c0,0,0.3,0.2,0.3,0.2C162.6,172.9,162.7,172.8,162.3,172.4z"/>
				<path d="M93.7,48.3c0.1-0.1,0.3-0.3,0.4-0.3c0.4,0,0.8,0.1,1.2,0.3C93.5,48.6,93.8,48.7,93.7,48.3z"/>
				<path d="M165.4,36.2c-0.2-0.2-0.5-0.4-0.7-0.6c0,0,0.2-0.2,0.2-0.2C165.9,36,165.8,35.9,165.4,36.2z"/>
				<path d="M197.3,34.5c0.6-0.2,0.4-0.4,0.9,0.5C197.6,35.3,197.8,35.4,197.3,34.5z"/>
				<path d="M188.4,173.6c-1.1,0.4-0.9,0.4-1.1,0C188.4,173.3,188.2,173.3,188.4,173.6z"/>
				<path d="M191.4,33c0.1-0.3,0.2-0.6,0.3-0.9C192.1,32.7,192.1,32.7,191.4,33z"/>
				<path d="M158.2,30.1c-0.8,0.5-0.5,0.5-1.3,0C157.6,29.6,157.2,29.6,158.2,30.1z"/>
				<path d="M161.7,59.1c0.3,0.4,0.3,0.2,0,1C160.7,59.5,161.1,59.4,161.7,59.1z"/>
				<path d="M196.1,78.5c0.1,0.3,0.1,0.6,0.2,0.9c-0.1,0-0.3,0.1-0.4,0C195.5,78.4,195.6,78.5,196.1,78.5z"/>
				<path d="M250.8,23c-0.9,0.6-0.5,0.6-1.4,0.2C250.1,22.6,249.7,22.6,250.8,23z"/>
				<path d="M84.8,81.3c-1,0.3-0.7,0.3-1.1-0.1C84.6,80.7,84.3,80.7,84.8,81.3z"/>
				<path d="M204.1,59.4c0.6-0.1,1.2-0.1,2.2-0.2C204.8,60.4,204.2,59.2,204.1,59.4z"/>
				<path d="M256.2-0.3c0.8,0.8,0.8,0.5,0.2,1.1C255.9,0.4,256,0.7,256.2-0.3z"/>
				<path d="M260,81.9c0.2,0.5,1,0.9-0.1,1.4C259,82.5,260.1,82,260,81.9z"/>
				<path d="M139.2,15.4c-0.9,0.2-0.7,0.4-1.2-0.3C138.7,14.7,138.4,14.6,139.2,15.4z"/>
				<path d="M193.7,13c-0.3-0.1-0.5-0.1-0.8-0.2c0-0.1,0.1-0.3,0.1-0.3C194,12.7,193.8,12.7,193.7,13z"/>
				<path d="M151,13.3c-0.6,0.4-0.3,0.5-0.9-0.1C150.6,12.9,150.4,12.8,151,13.3z"/>
				<path d="M125,12c-0.9,0.5-0.6,0.6-1.4-0.1C124.3,11.5,124,11.5,125,12z"/>
				<path d="M100.3,11.3c0.5,0.9,0.5,0.6-0.1,1.1C99.6,11.8,99.7,12,100.3,11.3z"/>
				<path d="M238.1,88.6c-0.9-1-0.8-0.6-0.4-1.3C238.2,87.4,238.1,87.2,238.1,88.6z"/>
				<path d="M234.6,88.6c-0.3-0.2-0.5-0.4-0.5-0.5c0-0.2,0.2-0.4,0.4-0.4c0.2,0,0.5,0.2,0.5,0.3C235.1,88.1,234.9,88.3,234.6,88.6z"
					/>
				<path d="M-5.7,90.6c-0.1,0.7-0.2,1.1-0.3,1.8C-6.7,91.6-6.7,91.2-5.7,90.6z"/>
				<path d="M228,93.1c1.1,0,0.9-0.1,1,0.2C227.9,93.4,228.1,93.5,228,93.1z"/>
				<path d="M149.3,95.3c-0.2-0.2-0.4-0.3-0.3-0.4c0-0.1,0.2-0.3,0.4-0.3c0.1,0,0.4,0.2,0.4,0.3C149.7,95,149.4,95.2,149.3,95.3z"/>
				<path d="M209.8,94.5c-0.4,0.2-0.6,0.3-0.9,0.4c-0.1,0-0.3-0.3-0.3-0.3C209.3,93.9,209.2,94.1,209.8,94.5z"/>
				<path d="M244.2,94.8c-0.2,1.2-0.1,1-0.7,1C243.7,94.5,243.5,94.7,244.2,94.8z"/>
				<path d="M199.8,96.2c-0.2-0.2-0.4-0.3-0.5-0.4c0.2-0.1,0.3-0.3,0.5-0.4c0,0,0.3,0.1,0.3,0.1C200,95.8,199.9,95.9,199.8,96.2z"/>
				<path d="M123,8.7c-1-0.4-1.1-0.8-0.8-1.3C122.8,7.3,122.6,7.1,123,8.7z"/>
				<path d="M281.1,104.9c-0.9-1-0.9-0.7-0.6-1c1,0.5,0.7,0.3,0.9,0.9C281.3,104.8,281.2,104.9,281.1,104.9z"/>
				<path d="M151.9,52.9c-0.3,0.2-0.4,0.3-0.6,0.4c-0.1,0-0.7-0.3,0.1-0.7C151.4,52.5,151.6,52.7,151.9,52.9z"/>
				<path d="M201.5,63.2c0-0.5,0-0.8,0.1-1.3C202.8,62.6,202.8,62.4,201.5,63.2z"/>
				<path d="M205.1,56.3c0,0.6-0.4,0.7-1.3,0.5C204.9,55.9,204.6,56,205.1,56.3z"/>
				<path d="M131.5,112.7c-1.1,0.6-0.9,0.6-1.2,0.2C131.5,112.3,131.2,112.3,131.5,112.7z"/>
				<path d="M40.2,115.5c-0.8-0.7-0.8-0.4-0.2-1.1C40.7,114.9,40.5,114.6,40.2,115.5z"/>
				<path d="M185.9,63.5c-0.9,0.6-0.6,0.6-1.3,0C185.1,63.2,184.8,63.2,185.9,63.5z"/>
				<path d="M183,49.7c1.1,0.7,0.2,1.2-0.2,0.9C182,50.1,183.3,49.5,183,49.7z"/>
				<path d="M73.1,52c0.2-1.3,0.1-1.1,0.6-1C73.7,52.2,73.9,52,73.1,52z"/>
				<path d="M159.6,135.6c1.4-0.1,1.1-0.2,1.2,0.3C159.3,136,159.6,136.1,159.6,135.6z"/>
				<path d="M10,51.7c0.4-0.2,1-0.7,1.1,0.2c0,0.1-0.3,0.3-0.4,0.3C10.5,52.1,10.4,52,10,51.7z"/>
				<path d="M18.5,7.6c-1,0.4-1.3,0.2-1.4-0.8C17.6,7.1,18,7.3,18.5,7.6z"/>
				<path d="M137.4,147.5c-1.6,0.7-1.3,0.7-1.6,0.4C136.4,147.2,136,147.4,137.4,147.5z"/>
				<path d="M270.3,37.6c0.2-1,0.1-0.8,0.6-0.7C270.6,37.8,270.7,37.7,270.3,37.6z"/>
				<path d="M202.8,38c-0.2,0.1-0.4,0.3-0.6,0.4c-0.3-0.4-0.6-0.4,0.3-0.8C202.5,37.5,202.6,37.8,202.8,38z"/>
				<path d="M211.1,70.7c0.7-0.1,1.1-0.2,1.5-0.2C212.2,71.2,212.2,71.2,211.1,70.7z"/>
				<path d="M227.2,34.7c0,0.2,0,0.5-0.1,0.7c0,0-0.3,0-0.3,0C226.7,34.6,226.7,34.7,227.2,34.7z"/>
				<path d="M161.1,34c0.2,0.2,0.3,0.3,0.4,0.4c-0.2,0.1-0.4,0.3-0.6,0.4c-0.1,0-0.4-0.2-0.4-0.3C160.8,34.3,160.9,34.2,161.1,34z"
					/>
				<path d="M170.2,72.7c-0.9,0.4-0.7,0.3-0.9,0C170.2,72.3,170,72.3,170.2,72.7z"/>
				<path d="M71.1,76.4c-0.7,0.3-0.4,0.4-1-0.3C70.9,76,70.6,76,71.1,76.4z"/>
				<path d="M45.7,131.3c0.2,0.2,0.3,0.3,0.4,0.5c0,0.1-0.3,0.3-0.4,0.3c-0.2-0.1-0.3-0.3-0.5-0.4C45.4,131.6,45.5,131.5,45.7,131.3
					z"/>
				<path d="M148.1,113.9c0.1,0.4,0.3,0.9-0.6,1.1C147.2,114.2,148.2,114,148.1,113.9z"/>
				<path d="M137.1,132.1c-1,0.4-0.7,0.4-1.2-0.2C136.8,131.6,136.5,131.6,137.1,132.1z"/>
				<path d="M126.7,133.1c-0.2,0.1-0.4,0.3-0.5,0.3c-0.1,0-0.3-0.2-0.4-0.3c0-0.1,0.2-0.3,0.4-0.3
					C126.3,132.8,126.5,133,126.7,133.1z"/>
				<path d="M248.1,90.6c0.4,0.8,0.4,0.5,0.1,1.1C247.6,91.3,247.7,91.5,248.1,90.6z"/>
				<path d="M271.8,91.2c-0.4-0.2-0.4,0,0-0.8C272.2,90.5,272.2,90.3,271.8,91.2z"/>
				<path d="M80,139.3c0.2,0.2,0.3,0.3,0.4,0.4c-0.1,0.1-0.3,0.3-0.4,0.3c-0.1,0-0.3-0.2-0.4-0.3C79.6,139.6,79.8,139.5,80,139.3z"
					/>
				<path d="M272.5,51.6c-0.6,0.4-0.4,0.4-0.9,0.1C272,51.2,271.8,51.3,272.5,51.6z"/>
				<path d="M252.1,89.2c0.3-0.8,0.1-0.5,0.9-0.9c-0.2,0.9,0,0.7-0.6,1C252.3,89.3,252.2,89.3,252.1,89.2z"/>
				<path d="M287.7,141.8c-0.5-0.4-0.5-0.2-0.2-0.7C288.1,141.4,288.1,141.2,287.7,141.8z"/>
				<path d="M98.5,9.1c0.2,0.1,0.3,0.2,0.5,0.3c-0.2,0.1-0.3,0.3-0.5,0.4c-0.1,0-0.3-0.2-0.3-0.3C98.1,9.4,98.3,9.2,98.5,9.1z"/>
				<path d="M159.8,142.8c-0.3,0.8-0.1,0.7-0.7,0.6C159.6,142.6,159.4,142.7,159.8,142.8z"/>
				<path d="M54.1,116.6c1.3,0,1.1,0,1,0.3C53.9,116.9,54.1,117,54.1,116.6z"/>
				<path d="M143.1,116.4c0.3,0.3,0.4,0.6-0.2,0.7c-0.2,0-0.4-0.1-0.6-0.2C143.3,116.4,143.2,116.5,143.1,116.4z"/>
				<path d="M150,109.6c-0.4,0.5-0.2,0.5-0.9,0.1C149.6,109.3,149.3,109.3,150,109.6z"/>
				<path d="M57.9,89.6c-0.6-0.4-0.6-0.2-0.1-0.7C58.4,89.3,58.3,89.1,57.9,89.6z"/>
				<path d="M85.1,152.7c-0.7-0.6-0.7-0.4-0.1-0.9C85.6,152.3,85.5,152.1,85.1,152.7z"/>
				<path d="M168.3,151.1c0.2-0.1,0.4-0.3,0.6-0.4c0,0,0.3,0.2,0.2,0.2C168.6,151.5,168.7,151.4,168.3,151.1z"/>
				<path d="M234.2,152.8c-0.6,0.8-0.4,0.7-0.8,0.5C233.9,152.5,233.7,152.6,234.2,152.8z"/>
				<path d="M180.4,65c-0.8,0.4-0.6,0.4-0.9-0.1C180.4,64.6,180.2,64.6,180.4,65z"/>
				<path d="M171.3,156c-0.7-0.7-0.6-0.5-0.4-0.8C171.7,155.9,171.6,155.8,171.3,156z"/>
				<path d="M223.9,158.1c0.2,0.3,0.2,0.5,0.3,0.7C223.6,158.5,223.7,158.7,223.9,158.1z"/>
				<path d="M79.2,16.5c-0.5-0.6-0.6-0.4,0.1-0.9C79.7,16,79.7,15.8,79.2,16.5z"/>
				<path d="M116.8,2.7c0.1,0.2,0.2,0.3,0.3,0.5c-0.2,0.1-0.3,0.1-0.5,0.1c-0.1,0-0.2-0.2-0.2-0.2C116.5,2.9,116.6,2.8,116.8,2.7z"
					/>
				<path d="M232.3,64.4c0.3-0.1,0.5-0.2,0.8-0.2c0,0,0.2,0.3,0.1,0.3C232.3,64.9,232.5,64.8,232.3,64.4z"/>
				<path d="M237.9,160.2c0,0-0.2,0.2-0.2,0.2c-0.3-0.1-0.6-0.2-0.9-0.3C237.2,159.7,237,159.6,237.9,160.2z"/>
				<path d="M230.7,160.5c0.7,0.6,0.7,0.4,0,0.8C230.1,160.7,230.2,160.9,230.7,160.5z"/>
				<path d="M174.6,17.7c0.4,0.6,0.4,0.4,0,0.8C174.1,18,174.2,18.1,174.6,17.7z"/>
				<path d="M31.3,124.3c-0.5-0.4-0.5-0.2-0.1-0.7C31.7,123.9,31.7,123.7,31.3,124.3z"/>
				<path d="M223.3,61.8c0.1,0.9,0.1,0.7-0.2,0.8C223,61.7,222.9,61.9,223.3,61.8z"/>
				<path d="M92,163.7c1.2-0.1,1-0.2,1.1,0.2C91.8,164.1,92.1,164.2,92,163.7z"/>
				<path d="M176.7,82.1c-0.1-0.2-0.2-0.3-0.3-0.4c0.2-0.1,0.4-0.2,0.6-0.2c0,0,0.3,0.3,0.2,0.4C177.2,81.9,177,82,176.7,82.1z"/>
				<path d="M190.7,164.1c1.1-0.4,0.9-0.4,1,0C190.5,164.1,190.6,164.1,190.7,164.1z"/>
				<path d="M246.2,0c0.3,0.1,0.6,0.2,0.9,0.2c0,0.1-0.1,0.3-0.1,0.3C245.8,0.3,246,0.3,246.2,0z"/>
				<path d="M109,64.4c-0.1-0.6-0.3-0.4,0.9-0.7C110,64.3,110.2,64.1,109,64.4z"/>
				<path d="M12.7,82.4c-1.4,0.4-1.1,0.4-1.3-0.1C12.7,81.9,12.5,81.9,12.7,82.4z"/>
				<path d="M93.8,22.7c0.2,0.3,0.4,0.4,0.6,0.6c0,0-0.3,0.3-0.4,0.3C93.1,23.1,93.4,23.1,93.8,22.7z"/>
				<path d="M166.8,168.6c-0.2,0.2-0.3,0.3-0.5,0.4c-0.1,0-0.3-0.2-0.3-0.3c0-0.1,0.2-0.3,0.3-0.4
					C166.4,168.3,166.6,168.5,166.8,168.6z"/>
				<path d="M72.5,170.2c0.3,0.1,0.6,0.1,0.9,0.2c-0.1,0.1-0.1,0.3-0.2,0.3C72.2,170.6,72.4,170.5,72.5,170.2z"/>
				<path d="M107,79.9c0.6,0.4,0.6,0.2,0.1,0.9C106.6,80.3,106.7,80.5,107,79.9z"/>
				<path d="M70.9,79.8c0.1,0.3,0.3,0.5,0.3,0.6c-0.1,0.2-0.4,0.3-0.6,0.3c-0.1,0-0.4-0.3-0.4-0.4C70.3,80.1,70.6,80,70.9,79.8z"/>
				<path d="M245.4,23.7c-0.7,0.3-0.5,0.3-0.7-0.2C245.4,23.3,245.2,23.3,245.4,23.7z"/>
				<path d="M76.9,171.5c0.4,0.4,0.6,0.6,0.6,0.8c0,0.1-0.3,0.3-0.4,0.3C76.3,172.2,76.7,171.9,76.9,171.5z"/>
				<path d="M81.3,79.5c0.3,0,0.7,0.1,1.1,0.1c-0.1,0.3-0.2,0.6-0.5,1.1C81.3,79.3,81.4,79.5,81.3,79.5z"/>
				<path d="M181.2,171.7c-0.3,0.5-0.1,0.4-0.9,0.1C180.5,171.5,180.3,171.5,181.2,171.7z"/>
				<path d="M154.6,26.3c0.4,0.4,0.5,0.2,0,0.7C154.1,26.6,154.1,26.7,154.6,26.3z"/>
				<path d="M287.8,126.4c-1,0.5-0.7,0.5-1.3,0.1C287.2,126,286.9,126.1,287.8,126.4z"/>
				<path d="M66,77.5c-0.6,0.5-0.3,0.5-1.1,0.1C65.3,77.2,65,77.1,66,77.5z"/>
				<path d="M73.5,98c0.4,1,0.4,0.7-0.2,1.2C72.6,98.6,72.6,98.9,73.5,98z"/>
				<path d="M93.5,130.1c-0.6,0.3-0.4,0.3-0.7,0C93.3,129.7,93.1,129.7,93.5,130.1z"/>
			</g>
		</g>
	</g>
</mask>
<g class="st2">
	<g>
		<g>
			<path class="st3" d="M226.7,153.9c-13.1,38.6-49.5,66.5-92.4,67c-43,0.4-79.8-26.9-93.7-65.1l-3.1,0
				c13.9,39.9,52.2,68.5,96.8,68.1c44.6-0.4,82.3-29.7,95.4-69.9L226.7,153.9z M132.4,20.9c-44.6,0.4-82.3,29.7-95.4,69.9l3.1,0
				c13.1-38.5,49.4-66.5,92.4-66.9c42.9-0.4,79.8,26.9,93.7,65.1l3.1,0C215.2,49,176.9,20.5,132.4,20.9z"/>
		</g>
		<path class="st3" d="M244.6,79.3c-3.5-1.6-5.3-5.6-4.1-9.3c1.3-4.2-1.1-8.7-5.4-9.8c-3.8-1-6.2-4.6-5.7-8.5
			c0.6-4.4-2.7-8.4-7.1-8.7c-1.9-0.2-3.7-1-4.9-2.3c-1.3-1.3-2.1-3.1-2.2-5c-0.2-4.4-4.1-7.7-8.5-7.3c-3.9,0.4-7.4-2.1-8.3-5.9
			c-1-4.3-5.4-6.9-9.7-5.7c-3.7,1.1-7.7-0.8-9.2-4.3c-1.8-4-6.6-5.8-10.5-3.8c-3.5,1.7-7.7,0.6-9.9-2.6c-2.5-3.7-7.5-4.5-11.1-1.9
			c-3.1,2.3-7.5,2-10.2-0.8c-3.1-3.2-8.2-3.1-11.2,0.1c-2.7,2.8-7,3.3-10.2,1c-3.6-2.6-8.6-1.6-11,2.1c-2.1,3.3-6.3,4.5-9.8,2.8
			c-4-1.9-8.8,0-10.5,4c-1.5,3.6-5.4,5.5-9.1,4.5c-4.3-1.1-8.6,1.5-9.6,5.8c-0.8,3.8-4.3,6.4-8.2,6.1c-4.4-0.4-8.2,3-8.4,7.5
			c-0.1,3.9-3.1,7.1-7,7.5c-4.4,0.4-7.5,4.4-6.9,8.8c0.6,3.8-1.8,7.5-5.6,8.6c-3.4,1-5.7,4.1-5.6,7.5c0,0.8,0.1,1.6,0.4,2.4
			c1.3,3.7-0.4,7.7-3.9,9.4c-3.6,1.8-5.2,5.9-3.9,9.5l14.9-0.1C45.5,48.2,85.2,17,132.3,16.5c47.1-0.5,87.3,30,101.5,72.4l14.9-0.1
			C249.9,85.1,248.2,81,244.6,79.3z M248.2,153.7l-13.8,0.1c-13.3,42.7-52.9,73.9-100.1,74.3c-47.1,0.5-87.4-29.9-101.5-72.4L19,156
			c2.2,1.4,3.5,3.8,3.5,6.4c0,1-0.2,2.1-0.6,3.1c-1.7,4.1,0.3,8.8,4.5,10.3c3.7,1.3,5.8,5.1,4.9,8.9c-1,4.3,1.9,8.6,6.3,9.3
			c3.8,0.6,6.6,4,6.4,7.9c0,0.1,0,0.2,0,0.4c0,4.3,3.5,7.7,7.8,7.7c3.9,0,7.2,2.8,7.8,6.6c0.6,4.4,4.8,7.3,9.1,6.5
			c3.8-0.7,7.6,1.5,8.8,5.2c1.4,4.2,6,6.4,10.1,4.8c0.9-0.3,1.8-0.5,2.7-0.5c2.8,0,5.5,1.5,6.9,4c2.1,3.9,7.1,5.2,10.8,2.9
			c3.3-2,7.6-1.3,10.1,1.7c2.8,3.4,7.9,3.8,11.2,0.9c2.9-2.6,7.3-2.6,10.2-0.1c3.4,2.9,8.5,2.4,11.2-1.1c2.4-3.1,6.7-3.9,10-1.9
			c3.8,2.2,8.7,0.8,10.8-3.1c1.8-3.4,5.9-5,9.5-3.7c4.2,1.5,8.7-0.7,10.1-5c1.2-3.7,4.9-6,8.7-5.3c4.4,0.8,8.5-2.3,9-6.7
			c0.2-1.9,1.2-3.6,2.5-4.8c1.4-1.2,3.1-2,5.1-2c4.4,0,7.9-3.8,7.7-8.2c0-0.1,0-0.2,0-0.4c0-3.7,2.6-7,6.3-7.7
			c4.3-0.8,7.1-5.1,6.1-9.4c-0.9-3.8,1.1-7.6,4.7-9c4.1-1.6,6.1-6.3,4.3-10.4C244.1,159.8,245.2,155.8,248.2,153.7z"/>
		<g>
			<path class="st3" d="M184.7,154.4c-10.6,17-29.4,28.4-50.8,28.6c-21.4,0.2-40.4-10.8-51.4-27.6l-3.4,0
				c11.3,18.4,31.7,30.7,54.8,30.5c23.1-0.2,43.3-12.9,54.2-31.5L184.7,154.4z M132.7,58.9c-23.2,0.2-43.3,12.9-54.2,31.5l3.4,0
				c10.6-17,29.4-28.4,50.8-28.6c21.4-0.2,40.4,10.8,51.3,27.6l3.4,0C176.3,70.9,155.9,58.7,132.7,58.9z"/>
		</g>
		<path class="st3" d="M87.7,155.4c10.3,14.3,27.2,23.5,46.2,23.3c18.9-0.2,35.6-9.7,45.7-24.2L87.7,155.4z"/>
		<path class="st3" d="M179,89.4L87,90.3c10.1-14.5,26.8-24.1,45.7-24.3C151.8,65.9,168.6,75.1,179,89.4z"/>
		<g>
			
				<rect x="1.5" y="94.3" transform="matrix(1 -9.696916e-03 9.696916e-03 1 -0.9223 1.2949)" class="st3" width="263.2" height="2.9"/>
		</g>
		<g>
			
				<rect x="2" y="147.5" transform="matrix(1 -9.696599e-03 9.696599e-03 1 -1.4383 1.3024)" class="st3" width="263.2" height="2.9"/>
		</g>
	</g>
	<g>
		<g>
			<path class="st3" d="M87.2,63.9c-1.3-0.5-2.5-1.5-3.6-3.2l-3.5-5.1c-1.2-1.7-1.8-3.3-1.7-4.6c0-1.4,0.9-2.6,2.5-3.7
				c1.6-1.1,2.9-1.5,4.1-1.2c1.2,0.3,2.3,1.2,3.3,2.6l0.6,0.9l-3,2.1l-0.7-1.1c-0.5-0.7-0.9-1.2-1.3-1.4c-0.4-0.2-0.9-0.1-1.4,0.2
				c-0.6,0.4-0.8,0.8-0.7,1.3c0.1,0.5,0.4,1.1,0.9,1.8l4.7,6.7c0.5,0.7,1,1.2,1.4,1.4c0.5,0.2,1,0.2,1.5-0.2
				c0.5-0.4,0.8-0.8,0.7-1.4c-0.1-0.6-0.3-1.2-0.8-1.9L89,55.6l-1.5,1l-1.3-1.9l4.3-3l5.4,7.8l-2,1.4l-1.1-1.2
				c0.3,1.4-0.2,2.5-1.4,3.3C89.9,64.1,88.5,64.3,87.2,63.9z"/>
			<path class="st3" d="M99.2,57.4c-0.9-0.1-1.7-0.5-2.3-1.1c-0.7-0.7-1.3-1.6-1.9-2.9l-5.3-11.4l3.3-1.6l5.6,11.9
				c0.4,0.8,0.8,1.4,1.2,1.7c0.4,0.4,0.9,0.4,1.5,0.1c0.6-0.3,0.9-0.7,0.9-1.2c0-0.5-0.2-1.2-0.6-2L95.9,39l3.4-1.6l5.3,11.4
				c0.6,1.2,0.9,2.3,1,3.3c0.1,0.9-0.1,1.8-0.6,2.5c-0.5,0.8-1.4,1.4-2.6,2C101.1,57.2,100.1,57.5,99.2,57.4z"/>
			<path class="st3" d="M106.4,35.1l4-1.1l8.4,16.8l-3.3,0.9l-1.8-3.7l-2.8,0.8l0.4,4.1l-3.4,1L106.4,35.1z M112.8,45.8l-3.1-6.9
				l1,7.4L112.8,45.8z"/>
			<path class="st3" d="M118,32.2l4.8-0.5c2-0.2,3.5,0,4.6,0.6c1.1,0.6,1.7,1.8,1.9,3.6c0.1,1.2,0.1,2.2-0.2,2.9
				c-0.3,0.8-0.8,1.4-1.6,1.9l3.5,8.7l-3.8,0.4l-3-8.1l-1.4,0.1l0.9,8.3l-3.7,0.4L118,32.2z M123.7,39.5c0.9-0.1,1.5-0.4,1.8-0.8
				c0.3-0.5,0.4-1.2,0.3-2.1c-0.1-0.9-0.3-1.6-0.7-1.9c-0.4-0.4-1-0.5-1.8-0.4l-1.3,0.1l0.6,5.3L123.7,39.5z"/>
			<path class="st3" d="M136.2,31.1l4.2,0.2l2.6,18.6l-3.5-0.2l-0.5-4.1l-2.9-0.2l-0.9,4l-3.5-0.2L136.2,31.1z M138.8,43.3l-0.7-7.5
				l-1.5,7.4L138.8,43.3z"/>
			<path class="st3" d="M148.1,32.1l2.6,0.6l2,10.2l2-9.4l3.1,0.7l-3.9,18l-2.5-0.5l-1.8-10.9l-2.2,10l-3.1-0.7L148.1,32.1z"/>
			<path class="st3" d="M163,38.9l-2.7-1l1-2.6l8.8,3.3l-1,2.6l-2.6-1L161,54.9l-3.5-1.3L163,38.9z"/>
			<path class="st3" d="M173.3,40.1l7.1,3.8l-1.2,2.3l-3.8-2l-2.3,4.3l2.9,1.6l-1.2,2.3l-2.9-1.6l-2.7,5.1l3.8,2l-1.2,2.3l-7.1-3.8
				L173.3,40.1z"/>
			<path class="st3" d="M183.6,45.9l6.6,4.7l-1.5,2.1l-3.5-2.5l-2.8,4l2.7,1.9l-1.5,2.1l-2.7-1.9l-3.4,4.7l3.5,2.5l-1.5,2.1
				l-6.6-4.7L183.6,45.9z"/>
		</g>
		<g>
			<path class="st3" d="M80.9,193.5c0-1.3,0.6-2.9,1.7-4.5l3.5-5.1c1.2-1.7,2.4-2.8,3.7-3.2c1.3-0.4,2.7-0.1,4.4,1
				c1.6,1.1,2.4,2.2,2.5,3.5c0.1,1.2-0.3,2.5-1.3,4l-0.6,0.9l-3-2.1l0.7-1.1c0.5-0.7,0.8-1.3,0.8-1.7s-0.2-0.8-0.7-1.2
				c-0.6-0.4-1.1-0.5-1.5-0.2c-0.4,0.3-0.9,0.7-1.4,1.5l-4.7,6.7c-0.5,0.7-0.8,1.3-0.8,1.8c-0.1,0.5,0.2,1,0.7,1.3
				c0.5,0.4,1.1,0.4,1.6,0.2c0.5-0.3,1-0.7,1.5-1.5l1.1-1.6l-1.5-1l1.3-1.9l4.3,3l-5.4,7.8l-2-1.4l0.7-1.5c-1.2,0.7-2.4,0.7-3.6-0.1
				C81.7,196,80.9,194.9,80.9,193.5z"/>
			<path class="st3" d="M93.8,202.7c-0.5-0.7-0.7-1.6-0.6-2.5c0.1-0.9,0.4-2,1-3.3l5.3-11.5l3.4,1.6L97.3,199
				c-0.4,0.8-0.6,1.5-0.6,2c0,0.5,0.3,1,0.9,1.2c0.6,0.3,1.1,0.2,1.5-0.1c0.4-0.4,0.8-0.9,1.2-1.7l5.5-11.9l3.4,1.6l-5.3,11.5
				c-0.6,1.2-1.2,2.2-1.9,2.9c-0.7,0.7-1.4,1-2.3,1.1c-0.9,0.1-2-0.2-3.2-0.7C95.2,204.1,94.3,203.5,93.8,202.7z"/>
			<path class="st3" d="M112.9,191.1l4,1.1l-1.5,18.7l-3.3-0.9l0.4-4.1l-2.8-0.8l-1.8,3.7l-3.4-0.9L112.9,191.1z M112.8,203.6
				l0.9-7.5l-3,6.9L112.8,203.6z"/>
			<path class="st3" d="M121,193.2l4.8,0.5c2,0.2,3.4,0.7,4.4,1.5c0.9,0.8,1.3,2.1,1.1,3.9c-0.1,1.2-0.4,2.1-0.8,2.8
				c-0.4,0.7-1.1,1.2-1.9,1.5l1.6,9.2l-3.8-0.4l-1.2-8.5l-1.4-0.1l-0.9,8.3l-3.7-0.4L121,193.2z M125,201.5c0.9,0.1,1.5-0.1,1.9-0.5
				c0.4-0.4,0.6-1.1,0.7-2c0.1-0.9,0-1.6-0.3-2c-0.3-0.5-0.8-0.7-1.7-0.8l-1.3-0.1l-0.5,5.3L125,201.5z"/>
			<path class="st3" d="M135.6,194.1l4.2-0.3l4.7,18.2l-3.5,0.2l-0.9-4l-2.9,0.2l-0.5,4.1l-3.5,0.2L135.6,194.1z M139.6,206
				l-1.6-7.3l-0.6,7.5L139.6,206z"/>
			<path class="st3" d="M144,193.5l2.6-0.6l6.1,8.4l-2.1-9.4l3-0.7l4.1,18l-2.5,0.6l-6.3-9l2.3,10l-3.1,0.7L144,193.5z"/>
			<path class="st3" d="M157.7,192.7l-2.7,1l-1-2.6l8.8-3.4l1,2.6l-2.6,1l5.7,14.6l-3.5,1.4L157.7,192.7z"/>
			<path class="st3" d="M163.4,187.3l7-3.9l1.3,2.3l-3.8,2.1l2.4,4.3l2.9-1.6l1.3,2.3l-2.9,1.6l2.8,5.1l3.8-2.1l1.2,2.2l-7.1,3.9
				L163.4,187.3z"/>
			<path class="st3" d="M171.3,182.9l6.5-4.8l1.5,2.1l-3.5,2.5l2.9,4l2.7-2l1.6,2.1l-2.7,2l3.4,4.7l3.5-2.6l1.5,2.1l-6.5,4.8
				L171.3,182.9z"/>
		</g>
	</g>
</g>
</svg>
